<svg width="367" height="124" viewBox="0 0 367 124" fill="none" xmlns="http://www.w3.org/2000/svg">
<path fill-rule="evenodd" clip-rule="evenodd" d="M128.854 111.864C128.798 111.472 129.376 111.1 130.137 111.04C130.899 110.979 131.568 111.25 131.624 111.643C131.68 112.036 131.102 112.407 130.34 112.468C129.579 112.529 128.91 112.257 128.854 111.864ZM120.873 110.304C118.599 109.273 118.517 109.096 120.408 109.313C121.674 109.458 123.115 110.008 123.609 110.533C124.842 111.841 124.134 111.782 120.873 110.304ZM219.004 100.604C212.009 99.8517 205.043 99.855 192.391 100.616C187.044 100.938 176.346 101.063 168.618 100.894C149.376 100.474 138.485 100.777 138.62 101.729C138.68 102.149 138.077 102.343 137.281 102.161C136.485 101.979 135.883 102.252 135.945 102.767C136.036 103.536 135.827 103.553 134.78 102.865C134.078 102.404 132.947 102.14 132.266 102.28C131.587 102.419 129.176 102.295 126.908 102.003C121.611 101.321 120.642 101.985 124.376 103.737C125.999 104.5 128.315 105.695 129.52 106.393C131.647 107.626 131.622 107.633 128.678 106.641C127.01 106.08 124.914 105.678 124.023 105.749C123.131 105.82 122.352 105.534 122.292 105.113C122.232 104.692 120.789 104.519 119.085 104.727C114.144 105.332 113.049 105.209 115.171 104.289C116.756 103.602 116.457 103.462 113.671 103.588C108.28 103.83 107.508 103.815 105.83 103.424C102.837 102.727 91.0662 101.837 83.2652 101.718C78.9486 101.652 69.8643 101.097 63.0776 100.485L50.7386 99.3723L59.0382 98.6334C64.985 98.1048 66.5279 97.7843 64.4807 97.5029C62.9091 97.2868 59.5953 97.2496 57.1149 97.4195C50.785 97.8544 51.3243 96.6115 57.9518 95.4911C62.5 94.7218 63.1715 94.4001 61.7261 93.6812C60.7599 93.2 59.4063 92.8516 58.7193 92.9065C58.0337 92.9613 54.1399 92.1346 50.0693 91.0692C45.9973 90.0039 41.6457 89.2088 40.397 89.3028C39.1481 89.396 37.1446 89.2151 35.9441 88.8993C34.3436 88.4788 35.7087 88.2282 41.0649 87.9599C45.0802 87.7583 48.3325 87.3519 48.2907 87.0576C48.2475 86.7634 47.5526 86.5748 46.7465 86.6392C45.9404 86.7036 45.6302 86.3932 46.0574 85.9495C46.5018 85.4885 49.0394 85.1492 51.9807 85.157C56.4704 85.1689 56.7598 85.0858 54.2498 84.5054C52.6682 84.1391 48.8761 84.0686 45.8229 84.3479L40.2725 84.8563L45.8942 83.666L51.516 82.4765L46.8858 80.7854L42.2557 79.0944L48.4699 78.4664C51.8877 78.1212 55.2968 77.7144 56.0456 77.5621C56.7944 77.4099 59.7758 77.059 62.671 76.7815C66.1909 76.4446 67.5785 76.0369 66.8582 75.5512C66.0961 75.0378 67.3779 74.8212 71.2235 74.8153C82.3863 74.7968 108.921 74.4042 111.518 74.2184C114.115 74.0326 114.115 73.9987 111.522 73.2674C107.357 72.0925 110.766 71.3153 117.743 71.848C137.577 73.3632 139.812 73.4511 154.895 73.3117C157.973 73.2832 161.916 73.3055 163.657 73.3608C167.712 73.4905 167.569 72.3389 163.391 71.2214C158.567 69.9302 161.323 70.0256 169.336 71.4277C178.855 73.093 184.56 72.5909 177.982 70.6661C175.708 70.0005 175.889 69.9123 179.62 69.87C181.928 69.8438 187.436 70.1955 191.86 70.6511C197.015 71.182 203.805 71.2081 210.754 70.723C217.288 70.2667 222.815 70.2644 224.65 70.7159C226.325 71.1282 227.99 71.2769 228.348 71.046C229.324 70.4198 253.774 70.7832 255.412 71.4484C256.308 71.8124 255.963 72.0921 254.473 72.2112C246.629 72.8378 261.06 74.6322 274.078 74.6491C277.121 74.653 280.785 74.9707 282.221 75.3551C284.532 75.9738 284.263 76.1102 279.862 76.5484C270.989 77.4314 258.456 81.0274 259.688 82.3355C260.187 82.8649 259.265 83.1805 257.074 83.2313C253.545 83.3124 250.008 85.13 252.342 85.6631C253.9 86.0183 263.375 85.2367 266.81 84.4689C268.127 84.1738 268.737 83.6179 268.166 83.2316C267.472 82.764 268.256 82.5952 270.525 82.7245C272.393 82.831 274.428 82.8823 275.045 82.838C275.662 82.7945 275.827 83.1107 275.412 83.5412C274.995 83.9747 276.086 84.2199 277.859 84.0898C280.632 83.8878 280.759 83.9758 278.815 84.7488C277.581 85.2396 271.28 86.084 264.811 86.6261C254.877 87.4572 253.201 87.7688 254.014 88.6321C254.544 89.1937 254.147 90.0121 253.135 90.4505C251.707 91.0681 252.088 91.3014 254.829 91.4883C258.197 91.7177 258.138 91.7694 253.583 92.5761L248.801 93.4234L253.315 93.1573C255.798 93.0118 257.872 93.1849 257.923 93.5434C258.062 94.5277 248.167 95.9951 236.222 96.7601C230.358 97.1362 222.764 97.7356 219.348 98.0923L213.136 98.7417L219.787 99.419C226.755 100.128 230.012 100.929 226.664 101.11C225.579 101.169 222.133 100.941 219.004 100.604ZM247.094 91.2684C250.729 90.9035 253.426 89.7035 252.307 88.9491C251.182 88.1894 239.039 89.1458 236.6 90.1859C235.178 90.7914 235.484 91.0227 237.983 91.2269C240.53 91.4352 240.817 91.6622 239.375 92.3257C238.135 92.8957 238.633 92.905 240.944 92.3534C242.807 91.9091 245.575 91.4208 247.094 91.2684ZM225.976 92.7958C225.01 92.675 223.139 92.8122 221.817 93.1013C220.495 93.3904 221.285 93.4891 223.572 93.3208C225.86 93.1525 226.941 92.9166 225.976 92.7958ZM62.7065 85.0109C60.3473 84.6728 58.1444 84.5677 57.8114 84.7778C56.8125 85.4081 61.2663 86.1828 64.2328 85.8945C66.3716 85.6868 66.0254 85.4876 62.7065 85.0109Z" fill="#D40000"/>
<path fill-rule="evenodd" clip-rule="evenodd" d="M181.071 114.986C181.015 114.593 181.593 114.222 182.355 114.161C183.116 114.1 183.785 114.372 183.841 114.765C183.897 115.158 183.319 115.529 182.558 115.59C181.796 115.651 181.127 115.379 181.071 114.986ZM173.091 113.425C170.817 112.395 170.734 112.218 172.625 112.435C173.891 112.58 175.332 113.129 175.827 113.655C177.059 114.963 176.351 114.904 173.091 113.425ZM271.221 103.726C264.227 102.973 257.26 102.977 244.609 103.738C239.261 104.06 228.563 104.185 220.835 104.016C201.594 103.595 190.702 103.898 190.838 104.851C190.897 105.271 190.295 105.465 189.498 105.283C188.702 105.101 188.101 105.374 188.163 105.889C188.254 106.658 188.044 106.675 186.997 105.986C186.296 105.525 185.164 105.262 184.484 105.401C183.804 105.541 181.393 105.416 179.126 105.125C173.828 104.443 172.859 105.106 176.593 106.859C178.217 107.621 180.532 108.817 181.737 109.515C183.865 110.748 183.839 110.755 180.895 109.763C179.227 109.201 177.132 108.799 176.24 108.871C175.348 108.942 174.569 108.656 174.509 108.235C174.449 107.814 173.006 107.64 171.303 107.848C166.361 108.453 165.267 108.331 167.388 107.411C168.973 106.723 168.674 106.583 165.888 106.709C160.497 106.952 159.725 106.936 158.047 106.545C155.054 105.848 143.283 104.959 135.483 104.839C131.166 104.774 122.082 104.219 115.295 103.607L102.956 102.494L111.255 101.755C117.202 101.226 118.745 100.906 116.698 100.625C115.126 100.408 111.813 100.371 109.332 100.541C103.002 100.976 103.542 99.7331 110.169 98.6127C114.717 97.8434 115.389 97.5218 113.943 96.8029C112.977 96.3217 111.624 95.9733 110.937 96.0281C110.251 96.0829 106.357 95.2562 102.287 94.1909C98.2146 93.1256 93.863 92.3304 92.6142 92.4244C91.3654 92.5177 89.3619 92.3368 88.1614 92.0209C86.5608 91.6005 87.926 91.3498 93.2822 91.0816C97.2975 90.88 100.55 90.4735 100.508 90.1792C100.465 89.8851 99.7699 89.6964 98.9638 89.7608C98.1577 89.8252 97.8474 89.5148 98.2747 89.0711C98.7191 88.6101 101.257 88.2709 104.198 88.2786C108.688 88.2905 108.977 88.2074 106.467 87.627C104.885 87.2607 101.093 87.1902 98.0402 87.4695L92.4898 87.978L98.1115 86.7877L103.733 85.5981L99.1031 83.9071L94.473 82.216L100.687 81.5881C104.105 81.2428 107.514 80.8361 108.263 80.6838C109.012 80.5315 111.993 80.1806 114.888 79.9031C118.408 79.5663 119.796 79.1585 119.075 78.6728C118.313 78.1594 119.595 77.9429 123.441 77.9369C134.604 77.9185 161.138 77.5258 163.735 77.34C166.333 77.1542 166.332 77.1203 163.739 76.3891C159.574 75.2142 162.983 74.4369 169.96 74.9696C189.794 76.4848 192.03 76.5728 207.113 76.4333C210.19 76.4049 214.134 76.4272 215.874 76.4824C219.93 76.6121 219.786 75.4606 215.608 74.3431C210.784 73.0518 213.54 73.1473 221.553 74.5493C231.072 76.2146 236.778 75.7126 230.2 73.7878C227.925 73.1221 228.106 73.034 231.837 72.9916C234.145 72.9655 239.654 73.3171 244.077 73.7728C249.232 74.3037 256.022 74.3297 262.971 73.8446C269.505 73.3884 275.032 73.386 276.867 73.8376C278.542 74.2499 280.208 74.3986 280.566 74.1677C281.541 73.5415 305.991 73.9048 307.629 74.57C308.526 74.934 308.18 75.2137 306.69 75.3328C298.846 75.9594 313.277 77.7539 326.295 77.7707C329.338 77.7747 333.003 78.0923 334.439 78.4768C336.749 79.0954 336.48 79.2318 332.08 79.6701C323.207 80.553 310.674 84.1491 311.906 85.4571C312.404 85.9866 311.482 86.3022 309.292 86.3529C305.762 86.4341 302.226 88.2517 304.559 88.7847C306.117 89.14 315.593 88.3584 319.028 87.5906C320.344 87.2954 320.955 86.7395 320.383 86.3532C319.689 85.8857 320.473 85.7168 322.742 85.8461C324.611 85.9526 326.645 86.0039 327.262 85.9597C327.879 85.9162 328.045 86.2324 327.629 86.6628C327.212 87.0964 328.303 87.3415 330.076 87.2114C332.849 87.0094 332.976 87.0975 331.032 87.8704C329.798 88.3613 323.497 89.2056 317.028 89.7477C307.094 90.5789 305.419 90.8905 306.232 91.7538C306.761 92.3154 306.365 93.1337 305.353 93.5722C303.925 94.1897 304.305 94.423 307.046 94.61C310.414 94.8394 310.356 94.891 305.8 95.6978L301.018 96.545L305.533 96.279C308.015 96.1334 310.089 96.3065 310.14 96.6651C310.28 97.6494 300.384 99.1168 288.44 99.8818C282.575 100.258 274.981 100.857 271.565 101.214L265.354 101.863L272.004 102.541C278.973 103.249 282.23 104.05 278.881 104.232C277.797 104.29 274.351 104.062 271.221 103.726ZM299.311 94.39C302.946 94.0252 305.643 92.8251 304.524 92.0707C303.4 91.3111 291.256 92.2675 288.817 93.3075C287.396 93.913 287.702 94.1443 290.2 94.3485C292.747 94.5568 293.034 94.7838 291.592 95.4473C290.352 96.0174 290.85 96.0267 293.162 95.4751C295.025 95.0308 297.792 94.5424 299.311 94.39ZM278.193 95.9175C277.228 95.7967 275.356 95.9339 274.034 96.223C272.712 96.5121 273.502 96.6108 275.79 96.4425C278.077 96.2742 279.159 96.0383 278.193 95.9175ZM114.924 88.1325C112.565 87.7944 110.362 87.6894 110.029 87.8995C109.03 88.5297 113.484 89.3044 116.45 89.0162C118.589 88.8084 118.243 88.6093 114.924 88.1325Z" fill="#D40000"/>
<path fill-rule="evenodd" clip-rule="evenodd" d="M138.843 86.9263C138.801 86.6329 139.201 86.3582 139.73 86.3159C140.26 86.2735 140.727 86.479 140.769 86.7724C140.811 87.0659 140.411 87.3406 139.882 87.3829C139.352 87.4252 138.885 87.2197 138.843 86.9263ZM133.279 85.7289C131.69 84.9505 131.631 84.8182 132.948 84.9876C133.83 85.1011 134.836 85.5171 135.185 85.9112C136.051 86.8925 135.559 86.8455 133.279 85.7289ZM201.485 78.8906C196.613 78.3005 191.765 78.2745 182.969 78.7911C179.251 79.0094 171.808 79.059 166.43 78.9011C153.039 78.5086 145.464 78.6903 145.565 79.402C145.609 79.7157 145.191 79.8581 144.636 79.719C144.081 79.5799 143.664 79.781 143.711 80.1657C143.78 80.7397 143.635 80.7518 142.901 80.2337C142.409 79.8866 141.62 79.6853 141.148 79.7867C140.676 79.888 138.997 79.7853 137.418 79.5586C133.727 79.0279 133.058 79.519 135.668 80.8422C136.804 81.4179 138.424 82.3196 139.267 82.8457C140.756 83.7746 140.738 83.7798 138.683 83.0273C137.518 82.6013 136.057 82.2928 135.437 82.3423C134.817 82.3919 134.273 82.1752 134.229 81.8605C134.184 81.5462 133.178 81.4108 131.995 81.5593C128.561 81.9906 127.799 81.8945 129.268 81.2165C130.366 80.7101 130.157 80.6043 128.219 80.6868C124.47 80.846 123.933 80.8312 122.763 80.5325C120.675 80 112.479 79.288 107.05 79.167C104.047 79.1005 97.722 78.6492 92.9956 78.1645L84.4025 77.2836L90.1717 76.7661C94.3054 76.3959 95.3766 76.163 93.9502 75.9446C92.8552 75.7769 90.5492 75.7356 88.8247 75.8523C84.4237 76.151 84.7899 75.2255 89.393 74.4164C92.5519 73.8608 93.0168 73.6235 92.0059 73.0811C91.3301 72.718 90.3858 72.4524 89.9082 72.4906C89.4316 72.5287 86.7164 71.8958 83.8765 71.084C81.0356 70.2723 78.0021 69.6611 77.134 69.7261C76.2657 69.7906 74.8704 69.6474 74.0329 69.4068C72.9162 69.0864 73.8642 68.9049 77.5889 68.7266C80.3812 68.5926 82.6411 68.3025 82.6098 68.0827C82.5777 67.863 82.0928 67.7193 81.5324 67.7641C80.972 67.8089 80.7539 67.5759 81.0479 67.2465C81.3538 66.9043 83.1169 66.6615 85.1634 66.6793C88.2873 66.7065 88.488 66.6457 86.7375 66.2023C85.6343 65.9224 82.9955 65.8543 80.8732 66.0503L77.0151 66.407L80.9178 65.5417L84.8206 64.6768L81.5868 63.3958L78.3531 62.1148L82.6721 61.6715C85.0476 61.4278 87.4166 61.1382 87.9365 61.0276C88.4563 60.917 90.5282 60.6673 92.5405 60.472C94.9871 60.235 95.9496 59.9363 95.4449 59.5709C94.9109 59.1846 95.8011 59.0282 98.4767 59.0395C106.243 59.0713 124.702 58.8867 126.508 58.7587C128.314 58.6306 128.313 58.6053 126.504 58.049C123.598 57.1551 125.963 56.5889 130.822 57.015C144.633 58.2269 146.189 58.3017 156.682 58.2592C158.823 58.2506 161.567 58.2833 162.778 58.3317C165.601 58.4451 165.492 57.585 162.578 56.7339C159.212 55.7505 161.13 55.833 166.715 56.9122C173.351 58.1939 177.317 57.8425 172.726 56.3791C171.139 55.873 171.264 55.808 173.86 55.7916C175.465 55.7815 179.3 56.0665 182.381 56.4246C185.972 56.8419 190.696 56.8891 195.528 56.5555C200.07 56.2417 203.916 56.2625 205.196 56.607C206.364 56.9216 207.524 57.0393 207.772 56.8685C208.446 56.4051 225.46 56.7762 226.604 57.2794C227.231 57.5547 226.992 57.762 225.956 57.8448C220.504 58.2804 230.557 59.6787 239.615 59.7444C241.732 59.7598 244.284 60.0119 245.286 60.3047C246.898 60.7759 246.712 60.8765 243.653 61.1856C237.486 61.8084 228.792 64.441 229.659 65.4223C230.009 65.8195 229.37 66.0513 227.847 66.0802C225.391 66.1264 222.944 67.4684 224.572 67.8758C225.658 68.1473 232.245 67.6027 234.63 67.0437C235.544 66.8288 235.964 66.4164 235.563 66.1258C235.077 65.774 235.622 65.6511 237.202 65.7569C238.502 65.844 239.918 65.8906 240.347 65.8601C240.776 65.8302 240.893 66.0668 240.608 66.3864C240.32 66.7083 241.081 66.8957 242.314 66.8059C244.242 66.6664 244.331 66.7327 242.984 67.3016C242.129 67.6629 237.751 68.2673 233.254 68.6455C226.349 69.2252 225.185 69.4509 225.757 70.0985C226.129 70.5199 225.859 71.129 225.158 71.4521C224.169 71.9072 224.436 72.0828 226.344 72.2336C228.689 72.4186 228.649 72.4569 225.485 73.0404L222.164 73.6532L225.303 73.4731C227.029 73.3745 228.474 73.5122 228.512 73.78C228.616 74.5152 221.742 75.5699 213.437 76.0921C209.359 76.3488 204.08 76.7651 201.706 77.0174L197.389 77.4767L202.021 78.0093C206.874 78.5669 209.146 79.178 206.818 79.2998C206.064 79.339 203.664 79.1546 201.485 78.8906ZM220.961 72.0378C223.487 71.7804 225.355 70.8957 224.571 70.3281C223.783 69.7566 215.341 70.4208 213.652 71.187C212.667 71.6331 212.882 71.807 214.622 71.9696C216.395 72.1355 216.597 72.3061 215.598 72.7954C214.739 73.2158 215.086 73.2247 216.69 72.8225C217.983 72.4985 219.905 72.1453 220.961 72.0378ZM206.279 73.0915C205.606 72.9974 204.305 73.0922 203.387 73.3025C202.47 73.5129 203.02 73.5898 204.61 73.4735C206.201 73.3573 206.951 73.1856 206.279 73.0915ZM92.625 66.6141C90.9811 66.3521 89.4476 66.2647 89.2175 66.4201C88.5271 66.8864 91.6315 67.4828 93.6933 67.2798C95.18 67.1335 94.9376 66.9835 92.625 66.6141Z" fill="#D40000"/>
<path fill-rule="evenodd" clip-rule="evenodd" d="M115.205 64.678C115.144 64.2499 115.849 63.8392 116.773 63.7654C117.696 63.6917 118.501 63.9816 118.562 64.4098C118.623 64.8379 117.917 65.2486 116.994 65.3223C116.071 65.3961 115.265 65.1061 115.205 64.678ZM105.569 63.0521C102.834 61.9496 102.737 61.7574 105.023 61.9755C106.553 62.1217 108.288 62.7074 108.878 63.2759C110.347 64.6913 109.492 64.6337 105.569 63.0521ZM224.543 51.5201C216.088 50.7667 207.653 50.8375 192.323 51.7906C185.843 52.1933 172.889 52.4331 163.535 52.323C140.247 52.05 127.056 52.4858 127.203 53.5243C127.268 53.982 126.535 54.1996 125.574 54.0087C124.613 53.8178 123.88 54.1212 123.946 54.6827C124.043 55.5205 123.79 55.5415 122.534 54.8003C121.692 54.3038 120.327 54.0272 119.501 54.1861C118.676 54.3448 115.758 54.2323 113.019 53.9363C106.616 53.2433 105.432 53.9764 109.922 55.8527C111.875 56.669 114.658 57.9511 116.105 58.7016C118.659 60.0263 118.628 60.0343 115.081 58.9801C113.071 58.3834 110.541 57.9651 109.46 58.0515C108.379 58.1378 107.441 57.8333 107.376 57.374C107.311 56.9155 105.566 56.74 103.5 56.9837C97.5076 57.6916 96.1844 57.5682 98.769 56.5438C100.699 55.7786 100.34 55.6286 96.9646 55.7928C90.4339 56.1098 89.4988 56.1003 87.4744 55.6897C83.8628 54.9579 69.6272 54.101 60.1846 54.0461C54.9596 54.0163 43.9708 53.4984 35.7646 52.8959L20.8449 51.8008L30.9059 50.9144C38.1147 50.2802 39.9883 49.9156 37.5145 49.6283C35.6155 49.4076 31.6041 49.399 28.5981 49.6085C20.9271 50.1441 21.6013 48.7826 29.6445 47.4961C35.1643 46.6127 35.9828 46.2552 34.2452 45.4847C33.0836 44.9689 31.4508 44.6018 30.6181 44.6683C29.7871 44.7347 25.0871 43.8703 20.177 42.747C15.2654 41.6239 10.0105 40.7983 8.49707 40.9129C6.9835 41.0267 4.5609 40.8487 3.1129 40.5156C1.18235 40.0723 2.83944 39.7856 9.32881 39.4412C14.1936 39.1824 18.1381 38.7075 18.0926 38.3867C18.0454 38.0662 17.2072 37.867 16.2302 37.9451C15.2531 38.0231 14.8829 37.6874 15.4078 37.1991C15.9537 36.6918 19.0318 36.2971 22.5927 36.2771C28.0282 36.2468 28.3799 36.1533 25.3511 35.5442C23.4425 35.1598 18.8527 35.1195 15.1514 35.4537L8.42276 36.0621L15.2494 34.709L22.0761 33.3567L16.4994 31.5561L10.9227 29.7556L18.457 29.0104C22.6009 28.6006 26.7353 28.1238 27.6445 27.9504C28.5537 27.777 32.1693 27.3654 35.6792 27.0346C39.9465 26.633 41.6336 26.1747 40.7698 25.6517C39.856 25.0988 41.4115 24.8501 46.0675 24.8065C59.5826 24.6786 91.715 23.9939 94.8626 23.766C98.0103 23.5382 98.0101 23.5012 94.8833 22.7283C89.8614 21.4865 94.0012 20.6055 102.439 21.1194C126.426 22.5812 129.131 22.6556 147.395 22.3578C151.122 22.297 155.896 22.2833 158.002 22.3268C162.91 22.4291 162.755 21.1739 157.717 19.9948C151.898 18.6324 155.234 18.71 164.91 20.1625C176.407 21.8878 183.323 21.2848 175.392 19.248C172.65 18.5436 172.87 18.4457 177.388 18.3634C180.183 18.3126 186.846 18.6431 192.194 19.0976C198.425 19.6272 206.646 19.59 215.067 18.9936C222.986 18.4326 229.678 18.3767 231.891 18.8517C233.912 19.2855 235.926 19.4316 236.364 19.1762C237.556 18.4834 267.151 18.6439 269.123 19.3539C270.202 19.7424 269.779 20.051 267.972 20.1953C258.465 20.9548 275.906 22.7736 291.666 22.6662C295.351 22.6412 299.782 22.9524 301.514 23.358C304.301 24.0108 303.972 24.1622 298.637 24.6829C287.879 25.7321 272.644 29.7771 274.113 31.1926C274.707 31.7655 273.586 32.1188 270.933 32.1953C266.658 32.318 262.345 34.3355 265.162 34.8946C267.041 35.2672 278.527 34.3228 282.699 33.4518C284.298 33.117 285.047 32.5046 284.361 32.0886C283.529 31.585 284.481 31.3932 287.227 31.5124C289.487 31.6106 291.949 31.6469 292.696 31.5927C293.444 31.5392 293.639 31.8827 293.129 32.3564C292.616 32.8335 293.933 33.0905 296.082 32.9314C299.442 32.6842 299.595 32.7791 297.229 33.6412C295.726 34.1888 288.082 35.171 280.241 35.825C268.2 36.8279 266.166 37.1841 267.136 38.1182C267.767 38.726 267.273 39.6228 266.04 40.111C264.301 40.7987 264.757 41.0495 268.073 41.2271C272.146 41.4449 272.075 41.5018 266.545 42.4261L260.741 43.3968L266.211 43.0629C269.219 42.8801 271.727 43.049 271.783 43.4397C271.935 44.5124 259.93 46.2092 245.455 47.1593C238.348 47.6263 229.144 48.3538 225.002 48.776L217.471 49.5446L225.511 50.2194C233.935 50.9256 237.865 51.7682 233.808 51.9986C232.494 52.0729 228.326 51.8572 224.543 51.5201ZM258.711 41.0617C263.119 40.6286 266.404 39.293 265.063 38.4806C263.714 37.6626 248.996 38.8234 246.025 39.9819C244.294 40.6563 244.66 40.9058 247.682 41.1045C250.762 41.3072 251.105 41.5521 249.348 42.2901C247.837 42.9241 248.44 42.9294 251.248 42.3051C253.511 41.8024 256.87 41.2427 258.711 41.0617ZM233.118 42.9324C231.951 42.8099 229.683 42.9778 228.077 43.306C226.472 43.6342 227.427 43.7343 230.199 43.5285C232.971 43.3228 234.285 43.0549 233.118 42.9324ZM35.581 36.0142C32.7304 35.668 30.0652 35.5747 29.6585 35.8071C28.4383 36.5045 33.8172 37.3069 37.4136 36.9637C40.0067 36.7163 39.5909 36.5024 35.581 36.0142Z" fill="#D40000"/>
<path fill-rule="evenodd" clip-rule="evenodd" d="M174.537 61.3705C174.477 60.9423 175.182 60.5317 176.106 60.4579C177.029 60.3842 177.834 60.6741 177.895 61.1022C177.956 61.5304 177.25 61.941 176.327 62.0148C175.403 62.0886 174.598 61.7986 174.537 61.3705ZM164.902 59.7445C162.167 58.6421 162.07 58.4498 164.356 58.6679C165.886 58.8142 167.621 59.3998 168.211 59.9683C169.68 61.3838 168.825 61.3261 164.902 59.7445ZM283.876 48.2126C275.42 47.4592 266.986 47.53 251.655 48.4831C245.176 48.8858 232.222 49.1255 222.868 49.0155C199.58 48.7425 186.388 49.1783 186.536 50.2168C186.601 50.6745 185.868 50.8921 184.907 50.7012C183.946 50.5103 183.213 50.8136 183.279 51.3752C183.376 52.213 183.123 52.234 181.866 51.4928C181.025 50.9963 179.66 50.7196 178.833 50.8785C178.009 51.0373 175.091 50.9248 172.351 50.6288C165.949 49.9358 164.765 50.6689 169.255 52.5452C171.208 53.3614 173.991 54.6436 175.437 55.394C177.992 56.7188 177.961 56.7268 174.414 55.6726C172.404 55.0758 169.874 54.6576 168.793 54.7439C167.712 54.8303 166.774 54.5258 166.709 54.0665C166.644 53.608 164.899 53.4325 162.833 53.6762C156.84 54.3841 155.517 54.2607 158.102 53.2362C160.032 52.4711 159.673 52.3211 156.297 52.4853C149.767 52.8023 148.832 52.7928 146.807 52.3822C143.196 51.6504 128.96 50.7935 119.517 50.7386C114.292 50.7088 103.304 50.1909 95.0975 49.5884L80.1777 48.4933L90.2387 47.6069C97.4476 46.9727 99.3211 46.6081 96.8473 46.3208C94.9484 46.1001 90.9369 46.0915 87.931 46.3009C80.2599 46.8366 80.9342 45.4751 88.9774 44.1885C94.4971 43.3051 95.3156 42.9477 93.578 42.1772C92.4165 41.6614 90.7837 41.2943 89.951 41.3608C89.12 41.4272 84.4199 40.5627 79.5099 39.4395C74.5982 38.3164 69.3434 37.4907 67.8299 37.6054C66.3164 37.7192 63.8938 37.5411 62.4458 37.2081C60.5152 36.7648 62.1723 36.4781 68.6617 36.1336C73.5265 35.8749 77.471 35.3999 77.4254 35.0792C77.3782 34.7586 76.5401 34.5595 75.563 34.6376C74.586 34.7156 74.2157 34.3799 74.7406 33.8916C75.2866 33.3843 78.3647 32.9896 81.9255 32.9696C87.361 32.9392 87.7128 32.8458 84.684 32.2367C82.7754 31.8523 78.1855 31.8119 74.4842 32.1462L67.7556 32.7546L74.5822 31.4015L81.4089 30.0492L75.8322 28.2486L70.2556 26.448L77.7899 25.7028C81.9338 25.2931 86.0682 24.8163 86.9773 24.6429C87.8865 24.4695 91.5021 24.0578 95.0121 23.7271C99.2794 23.3255 100.966 22.8672 100.103 22.3442C99.1888 21.7913 100.744 21.5426 105.4 21.4989C118.915 21.371 151.048 20.6864 154.195 20.4585C157.343 20.2307 157.343 20.1937 154.216 19.4208C149.194 18.179 153.334 17.298 161.772 17.8118C185.759 19.2737 188.464 19.3481 206.728 19.0502C210.454 18.9895 215.228 18.9758 217.335 19.0193C222.242 19.1216 222.088 17.8664 217.049 16.6873C211.231 15.3249 214.566 15.4025 224.243 16.855C235.74 18.5802 242.656 17.9773 234.725 15.9405C231.983 15.2361 232.203 15.1382 236.721 15.0559C239.515 15.0051 246.179 15.3356 251.527 15.7901C257.758 16.3197 265.979 16.2825 274.4 15.6861C282.319 15.1251 289.011 15.0692 291.224 15.5442C293.245 15.9779 295.259 16.1241 295.696 15.8687C296.888 15.1759 326.484 15.3363 328.456 16.0464C329.535 16.4349 329.111 16.7435 327.305 16.8878C317.798 17.6473 335.238 19.4661 350.999 19.3587C354.683 19.3336 359.115 19.6449 360.846 20.0505C363.634 20.7033 363.305 20.8547 357.97 21.3754C347.212 22.4246 331.977 26.4696 333.446 27.8851C334.04 28.458 332.919 28.8113 330.266 28.8878C325.991 29.0105 321.678 31.028 324.495 31.5871C326.374 31.9597 337.86 31.0153 342.032 30.1443C343.631 29.8095 344.379 29.197 343.694 28.781C342.862 28.2775 343.814 28.0857 346.559 28.2049C348.82 28.303 351.282 28.3394 352.029 28.2852C352.777 28.2317 352.972 28.5751 352.462 29.0489C351.949 29.526 353.266 29.783 355.415 29.6239C358.775 29.3767 358.928 29.4715 356.561 30.3337C355.059 30.8813 347.415 31.8635 339.574 32.5175C327.533 33.5204 325.499 33.8765 326.468 34.8107C327.1 35.4184 326.606 36.3153 325.373 36.8034C323.634 37.4911 324.09 37.742 327.406 37.9196C331.479 38.1374 331.408 38.1943 325.878 39.1186L320.074 40.0893L325.544 39.7554C328.552 39.5726 331.06 39.7414 331.116 40.1322C331.268 41.2049 319.263 42.9017 304.788 43.8518C297.681 44.3188 288.477 45.0462 284.335 45.4685L276.804 46.237L284.844 46.9118C293.268 47.6181 297.198 48.4607 293.141 48.6911C291.827 48.7654 287.659 48.5496 283.876 48.2126ZM318.044 37.7542C322.451 37.321 325.737 35.9855 324.396 35.1731C323.047 34.355 308.329 35.5159 305.358 36.6744C303.627 37.3488 303.993 37.5982 307.015 37.7969C310.094 37.9996 310.438 38.2446 308.68 38.9825C307.169 39.6165 307.773 39.6219 310.581 38.9976C312.844 38.4948 316.202 37.9352 318.044 37.7542ZM292.451 39.6249C291.284 39.5024 289.016 39.6702 287.41 39.9984C285.805 40.3267 286.76 40.4267 289.532 40.221C292.304 40.0153 293.617 39.7474 292.451 39.6249ZM94.9138 32.7067C92.0633 32.3605 89.398 32.2671 88.9913 32.4996C87.7712 33.197 93.15 33.9993 96.7465 33.6561C99.3396 33.4088 98.9238 33.1948 94.9138 32.7067Z" fill="#D40000"/>
<path fill-rule="evenodd" clip-rule="evenodd" d="M208.22 84.0524C208.159 83.6242 208.453 83.2465 208.873 83.2129C209.293 83.1794 209.686 83.5022 209.747 83.9304C209.808 84.3585 209.514 84.7363 209.094 84.7698C208.674 84.8034 208.281 84.4805 208.22 84.0524ZM203.655 82.0214C202.31 80.8078 202.25 80.6126 203.32 80.9278C204.037 81.1391 204.881 81.7959 205.197 82.3863C205.982 83.8564 205.584 83.7623 203.655 82.0214ZM257.604 75.6842C253.65 74.5712 249.768 74.2783 242.776 74.5653C239.82 74.6865 233.868 74.3668 229.549 73.8545C218.795 72.5802 212.748 72.4452 212.896 73.4836C212.961 73.9414 212.64 74.1261 212.182 73.8949C211.725 73.6638 211.41 73.9338 211.484 74.4947C211.593 75.3316 211.477 75.3416 210.842 74.5508C210.416 74.0211 209.765 73.6873 209.397 73.8096C209.029 73.9319 207.676 73.6944 206.39 73.2822C203.386 72.3177 202.896 72.9953 205.11 75.0535C206.072 75.9489 207.453 77.3431 208.177 78.1512C209.456 79.578 209.442 79.5846 207.727 78.384C206.755 77.7043 205.557 77.1797 205.065 77.219C204.574 77.2582 204.118 76.9152 204.053 76.4559C203.988 75.9974 203.17 75.7478 202.237 75.9011C199.529 76.3465 198.91 76.1669 200.022 75.26C200.853 74.5827 200.676 74.4181 199.133 74.4359C196.148 74.4697 195.716 74.42 194.752 73.9247C193.031 73.0418 186.404 71.5771 182.048 71.1158C179.638 70.8612 174.534 69.8731 170.706 68.9209L163.745 67.1899L168.315 66.7422C171.588 66.4224 172.424 66.1407 171.262 65.7486C170.37 65.4475 168.52 65.2662 167.151 65.3449C163.657 65.5469 163.863 64.2227 167.471 63.2905C169.948 62.6502 170.298 62.3302 169.438 61.4895C168.863 60.9269 168.082 60.4917 167.704 60.522C167.326 60.5522 165.093 59.4906 162.744 58.1627C160.395 56.8349 157.91 55.788 157.221 55.8367C156.532 55.8847 155.402 55.6034 154.709 55.21C153.785 54.6862 154.527 54.4727 157.492 54.4098C159.714 54.3622 161.495 54.06 161.45 53.7393C161.404 53.4187 161.002 53.1846 160.558 53.2201C160.113 53.2556 159.917 52.906 160.122 52.4433C160.334 51.9626 161.723 51.7029 163.362 51.8364C165.865 52.0404 166.02 51.9626 164.578 51.2268C163.669 50.7625 161.55 50.5248 159.87 50.6976L156.815 51.0125L159.858 49.9616L162.901 48.9116L160.193 46.8819L157.485 44.8521L160.9 44.436C162.778 44.2072 164.647 43.9114 165.053 43.7783C165.459 43.6451 167.094 43.3916 168.686 43.214C170.622 42.9988 171.364 42.6159 170.926 42.0589C170.463 41.47 171.161 41.2899 173.303 41.447C179.522 41.902 194.279 42.6054 195.712 42.5145C197.146 42.4237 197.143 42.3869 195.642 41.4841C193.233 40.0335 195.073 39.3362 199.002 40.2104C210.169 42.6964 211.421 42.8869 219.816 43.3774C221.529 43.4776 223.728 43.6695 224.702 43.8035C226.972 44.1166 226.804 42.8624 224.392 41.4735C221.606 39.8688 223.149 40.0896 227.72 41.95C233.151 44.1598 236.292 43.8585 232.481 41.4925C231.163 40.6743 231.257 40.5865 233.333 40.6994C234.617 40.7692 237.713 41.3847 240.213 42.0667C243.126 42.8615 246.911 43.1786 250.747 42.9485C254.354 42.732 257.433 42.9647 258.49 43.5321C259.455 44.0502 260.394 44.2822 260.576 44.0472C261.072 43.41 274.725 44.8442 275.688 45.6348C276.215 46.0674 276.043 46.3559 275.222 46.4215C270.899 46.7669 279.076 49.3257 286.331 49.8978C288.027 50.0315 290.093 50.5317 290.923 51.0095C292.257 51.7783 292.117 51.9147 289.698 52.2024C284.821 52.7818 278.109 56.1459 278.894 57.616C279.212 58.211 278.722 58.5138 277.505 58.4756C275.544 58.4134 273.711 60.2328 275.052 60.9098C275.947 61.3611 281.168 60.9172 283.024 60.2312C283.736 59.9673 284.034 59.3908 283.686 58.9478C283.264 58.4116 283.688 58.262 284.962 58.4987C286.012 58.6935 287.149 58.8357 287.489 58.814C287.83 58.7931 287.946 59.1428 287.747 59.5917C287.548 60.0438 288.174 60.3559 289.152 60.2904C290.682 60.1894 290.76 60.2903 289.735 61.0452C289.084 61.5247 285.637 62.1717 282.073 62.484C276.6 62.9621 275.69 63.2285 276.209 64.1988C276.546 64.8299 276.387 65.7 275.856 66.1321C275.107 66.7407 275.337 67.0097 276.879 67.3289C278.773 67.7209 278.744 67.7743 276.266 68.4548L273.666 69.1696L276.161 69.0734C277.534 69.0212 278.702 69.2971 278.758 69.6879C278.91 70.7605 273.507 71.9299 266.909 72.2507C263.669 72.4088 259.483 72.7354 257.606 72.9766L254.194 73.4161L257.951 74.4331C261.888 75.4978 263.763 76.5045 261.911 76.5588C261.311 76.576 259.374 76.1821 257.604 75.6842ZM272.551 66.7614C274.549 66.5207 275.962 65.3348 275.281 64.4697C274.597 63.5985 267.902 64.1184 266.622 65.1418C265.876 65.7375 266.064 66.0012 267.471 66.3288C268.906 66.6629 269.083 66.9212 268.33 67.5789C267.682 68.144 267.961 68.1753 269.207 67.6758C270.211 67.2735 271.716 66.862 272.551 66.7614ZM260.899 67.5183C260.352 67.3463 259.319 67.4154 258.605 67.6725C257.89 67.9296 258.338 68.0702 259.599 67.9851C260.861 67.9 261.446 67.6903 260.899 67.5183ZM169.328 52.1345C167.988 51.6676 166.753 51.4601 166.583 51.6736C166.074 52.3142 168.614 53.3433 170.246 53.1571C171.422 53.023 171.214 52.7924 169.328 52.1345Z" fill="#D40000"/>
</svg>
