<svg width="100" height="101" viewBox="0 0 100 101" fill="none" xmlns="http://www.w3.org/2000/svg">
<path fill-rule="evenodd" clip-rule="evenodd" d="M54.294 0.75895C49.0277 2.08103 43.6095 6.29346 41.245 10.9041L40.1017 13.1335L33.1467 13.1345C25.2403 13.1362 23.9636 13.3896 21.9364 15.3607C19.4907 17.7388 19.4887 17.7517 19.4805 31.5184L19.4732 43.7883L18.3217 44.6676C16.3625 46.1638 15.2007 47.581 14.1039 49.8145C13.1441 51.7687 13.0484 52.2452 13.0431 55.1015C13.0378 57.9528 13.1339 58.4449 14.091 60.4681C14.6917 61.7377 15.8288 63.38 16.7351 64.2873L18.325 65.8791L16.1235 66.7822C9.89537 69.3378 4.53165 74.6149 2.03083 80.6473C0.42445 84.5217 0 87.3645 0 94.2445V100.372H25.7443H51.4885V93.928V87.4844H68.2441C87.1173 87.4844 86.5341 87.5584 88.058 84.9718C89.9347 81.7864 87.4375 76.4148 83.4586 75.0795C82.4114 74.7279 82.3431 74.6102 82.249 73L82.149 71.293L87.8599 71.2897C93.1745 71.2867 93.6851 71.2322 95.2208 70.5055C97.2041 69.5668 98.4171 68.3332 99.3198 66.3364C99.9749 64.8871 99.9921 64.2751 99.996 42.2144L100 19.5794L99.2201 17.9272C98.2824 15.9416 97.0503 14.7272 95.0558 13.8235C93.7092 13.2132 92.8989 13.1497 86.38 13.1431L79.1897 13.1358L78.5844 11.7315C77.7022 9.68508 75.0634 6.32353 73.152 4.81111C71.2941 3.34066 68.3213 1.75489 66.0393 1.01669C63.7996 0.292041 56.7684 0.138057 54.294 0.75895ZM65.4532 4.32801C75.4779 7.51542 80.3106 18.9985 75.5565 28.336C74.6191 30.1772 73.6398 31.4491 69.4765 36.2341L67.1661 38.8895L59.7132 38.8998L52.2599 38.91L49.3165 35.5462C43.2147 28.5733 42.0628 26.1525 42.111 20.4055C42.1345 17.6262 42.2916 16.5413 42.9005 14.9533C44.5264 10.7144 47.8246 7.03496 51.6272 5.21788C54.428 3.87961 55.6776 3.6255 59.6449 3.58618C62.3332 3.55974 63.5088 3.71009 65.4532 4.32801ZM56.6361 7.86535C54.4841 9.75678 54.2897 12.4974 56.1562 14.6258C58.0639 16.8011 61.2044 16.879 63.1936 14.8006C63.9313 14.0297 64.1726 13.4207 64.2868 12.0408C64.5554 8.79818 62.7675 6.86115 59.5039 6.85884C58.0547 6.85785 57.6012 7.01679 56.6361 7.86535ZM60.7301 10.4923C61.5608 11.324 61.5645 11.8841 60.7433 12.6283C59.2567 13.9752 57.2513 11.9674 58.5966 10.4791C59.3399 9.65699 59.8993 9.66062 60.7301 10.4923ZM38.9465 17.5697C38.9465 19.7988 39.0881 19.7446 33.2784 19.7446C30.2971 19.7446 27.7358 19.8923 27.3764 20.085C25.8565 20.8992 25.7443 21.7375 25.7443 32.2847C25.7443 41.7736 25.7169 42.2144 25.1254 42.2144C24.7851 42.2144 24.0352 42.3089 23.459 42.4242L22.4111 42.6341L22.5101 31.2719C22.6028 20.6021 22.649 19.8418 23.2689 18.7906C24.5191 16.6712 25.4344 16.4402 32.5876 16.4402H38.9465V17.5697ZM95.2987 17.8502L96.541 19.0946V42.2144V65.3342L95.298 66.5786L94.0547 67.8234L66.1862 67.9116L38.3174 67.9995L35.6809 66.9051C33.327 65.9276 33.1124 65.7677 33.6804 65.4125C34.1633 65.1105 41.0212 65.0143 62.1282 65.0127C80.4334 65.0117 90.3641 64.893 91.1806 64.666C93.6656 63.9751 93.5583 64.8914 93.6709 43.3858C93.7257 32.8366 93.6768 23.5549 93.5616 22.7595C93.4362 21.8905 93.0401 21.0009 92.5688 20.5291C91.807 19.7664 91.6328 19.7446 86.314 19.7446C82.2246 19.7446 80.8106 19.6402 80.7162 19.3316C80.6466 19.1045 80.5106 18.3525 80.4142 17.6609L80.239 16.4035L87.1473 16.5043L94.056 16.6054L95.2987 17.8502ZM54.7891 21.2316V22.7185H56.4394H58.0896V27.6751V32.6317H56.4212H54.7528L54.8535 34.2013L54.9541 35.7709H59.7399H64.5257L64.6264 34.2013L64.727 32.6317H63.0586H61.3902V27.6751V22.7185H63.0405H64.6907V21.2316V19.7446H59.7399H54.7891V21.2316ZM38.7471 23.1316C40.5525 29.9099 41.3951 31.459 46.308 37.0315L49.7498 40.9356L49.9254 45.7881C50.1218 51.2235 50.3753 52.2207 52.1817 54.6584C54.4689 57.745 58.6395 59.0611 62.5378 57.9267C64.0716 57.4803 64.8403 56.987 66.3331 55.4907C68.9128 52.9054 69.3115 51.6091 69.3115 45.8059V41.2541L72.0906 38.1229C77.7233 31.7772 79.0554 29.6108 80.1215 25.0637L80.675 22.7017L85.4726 22.7926L90.27 22.8838L90.3551 42.297L90.4403 61.7103H63.6917H36.943L37.3058 61.0315C38.0573 59.6255 38.6095 57.1813 38.6128 55.2442C38.6224 49.9919 35.7532 45.571 30.8885 43.3415L29.0448 42.4963V32.6076V22.7185H33.8408C37.3992 22.7185 38.6656 22.8253 38.7471 23.1316ZM32.3454 27.6751V29.3637L33.9131 29.2629L35.4809 29.1621V27.6751V26.1881L33.9131 26.0874L32.3454 25.9866V27.6751ZM32.3454 34.3021V35.9724L33.9131 35.8716L35.4809 35.7709L35.5816 34.2013L35.6822 32.6317H34.0138H32.3454V34.3021ZM75.9126 37.2578V38.91H81.5235H87.1345V37.2578V35.6056H81.5235H75.9126V37.2578ZM32.3454 40.544V42.2144H34.0138H35.6822L35.5816 40.6448L35.4809 39.0752L33.9131 38.9745L32.3454 38.8737V40.544ZM66.011 43.8666V45.5188H59.5749H53.1388V43.8666V42.2144H59.5749H66.011V43.8666ZM72.6121 43.8666V45.5188H79.8733H87.1345V43.8666V42.2144H79.8733H72.6121V43.8666ZM30.3423 46.6948C33.7762 48.5661 35.5096 51.7981 35.2475 55.8417C35.0799 58.431 34.5627 59.719 32.954 61.5533C31.2351 63.5135 29.3115 64.436 26.577 64.6115C22.1833 64.894 19.092 63.1582 17.1853 59.338C14.5987 54.1551 17.1048 48.0539 22.6741 45.9758C24.7115 45.2158 28.2342 45.5459 30.3423 46.6948ZM66.011 49.4946C66.011 50.6416 65.1475 52.3057 63.9871 53.3954C60.3284 56.8313 54.492 54.8243 53.3332 49.7319L53.1263 48.8232H59.5686C65.8248 48.8232 66.011 48.8427 66.011 49.4946ZM72.6121 50.3101V51.7971H79.8733H87.1345V50.3101V48.8232H79.8733H72.6121V50.3101ZM72.6121 56.7537V58.4059H79.8733H87.1345V56.7537V55.1015H79.8733H72.6121V56.7537ZM27.6206 68.1911C28.3345 68.3828 28.3303 68.4059 27.219 70.4137C26.6011 71.5296 25.9796 72.4792 25.8373 72.5242C25.6954 72.5694 25.0805 71.6974 24.4709 70.5868C23.5857 68.9736 23.4527 68.51 23.8108 68.283C24.3237 67.9575 26.5509 67.904 27.6206 68.1911ZM21.9104 72.6041L23.7966 75.9267L22.3922 77.7273C21.6196 78.7176 20.94 79.4802 20.8819 79.4224C20.3888 78.9284 19.2405 68.7968 19.7109 69.0879C19.8828 69.1943 20.8727 70.7768 21.9104 72.6041ZM31.5196 74.8333C31.2248 76.9752 30.8707 78.8428 30.7327 78.9836C30.5944 79.124 29.8624 78.5041 29.1059 77.6057L27.7299 75.972L29.7901 72.4009C31.7008 69.0889 31.8579 68.9065 31.9529 69.8843C32.0094 70.4642 31.8143 72.6914 31.5196 74.8333ZM16.5027 71.9472C16.5027 74.2897 18.0956 82.6465 19.297 86.6061C20.2673 89.8044 21.4334 92.97 22.9989 96.6541C23.1352 96.9743 22.018 97.0671 18.0233 97.0671H12.8721V90.6236V84.1801H11.2219H9.57159V90.6236V97.0671H6.43607H3.30055V92.3795C3.30055 86.8219 3.76064 84.5644 5.71226 80.5452C6.77734 78.3518 7.65661 77.1493 9.72672 75.0553C12.2252 72.5278 15.6423 70.1387 16.2347 70.5052C16.3823 70.5964 16.5027 71.2454 16.5027 71.9472ZM39.4415 72.7806C42.6097 75.3669 44.3468 77.4969 46.0235 80.8515C47.655 84.1163 48.2048 86.7168 48.4213 92.1932L48.6141 97.0671H45.2654H41.917V90.6236V84.1801H40.2667H38.6164V90.6236V97.0671H33.4963H28.3758L28.9217 95.828C32.147 88.5055 33.8527 81.9489 35.1531 71.8745L35.3551 70.3083L36.7384 71.0058C37.4988 71.3891 38.7154 72.1881 39.4415 72.7806ZM78.8831 72.9452V74.5973H62.4503H46.0179L44.3924 72.9452L42.7668 71.293H60.8251H78.8831V72.9452ZM83.0943 78.5609C85.0762 79.7707 86.2087 82.8362 85.0343 83.8123C84.7092 84.0822 79.8818 84.1622 67.6553 84.1004L50.7264 84.0148L50.164 82.3587C49.8548 81.448 49.2808 80.0724 48.8884 79.3021L48.1745 77.9017L65.0967 77.903C81.4001 77.904 82.0579 77.9282 83.0943 78.5609ZM27.8807 81.1952C29.5825 83.278 29.7396 83.6011 29.5264 84.5822C29.2346 85.9251 27.3338 91.4262 26.4687 93.4323L25.8274 94.9193L24.9951 93.0556C24.5369 92.0303 23.6025 89.4885 22.918 87.4068L21.6737 83.6219L23.6266 81.2653C24.7006 79.9693 25.6736 78.9053 25.7895 78.901C25.905 78.8967 26.846 79.929 27.8807 81.1952ZM24.094 84.1801V85.8322H25.7443H27.3945V84.1801V82.5279H25.7443H24.094V84.1801Z" fill="white"/>
</svg>
