<svg width="338" height="134" viewBox="0 0 338 134" fill="none" xmlns="http://www.w3.org/2000/svg">
<path d="M25.6085 74.1601C20.3529 74.156 15.8201 72.9924 12.0104 70.6694C8.22434 68.3227 5.30311 65.0534 3.24671 60.8614C1.214 56.6458 0.199813 51.7445 0.204153 46.1574C0.208494 40.5702 1.23031 35.6468 3.26961 31.387C5.33259 27.1036 8.19977 23.7677 11.8711 21.3795C15.5662 18.9676 19.8758 17.7635 24.8001 17.7674C27.641 17.7696 30.446 18.2452 33.2152 19.1944C35.9843 20.1435 38.5044 21.6843 40.7755 23.8167C43.0466 25.9255 44.8555 28.7205 46.2022 32.2016C47.549 35.6828 48.2203 39.9683 48.2164 45.0583L48.2136 48.6094L6.16819 48.5768L6.17381 41.3325L39.6965 41.3585C39.6989 38.2808 39.0855 35.5342 37.8563 33.1184C36.6508 30.7027 34.9241 28.7956 32.6761 27.3971C30.4518 25.9986 27.8245 25.2981 24.7942 25.2958C21.4562 25.2932 18.5673 26.1195 16.1275 27.7748C13.7115 29.4065 11.8514 31.5357 10.5473 34.1625C9.24316 36.7894 8.58993 39.6061 8.58759 42.6127L8.58384 47.4423C8.58064 51.5616 9.28815 55.0541 10.7064 57.9198C12.1483 60.7618 14.1471 62.9296 16.7028 64.423C19.2584 65.8928 22.229 66.629 25.6144 66.6317C27.8161 66.6334 29.805 66.3271 31.581 65.713C33.3808 65.0752 34.9322 64.1294 36.2352 62.8757C37.5383 61.5983 38.5457 60.0129 39.2574 58.1195L47.3522 60.3985C46.4978 63.1441 45.0636 65.5577 43.0497 67.6395C41.0358 69.6976 38.5487 71.3055 35.5886 72.4633C32.6284 73.5973 29.3017 74.1629 25.6085 74.1601ZM83.1014 74.2047C77.9878 74.2008 73.5853 72.9899 69.894 70.5723C66.2027 68.1547 63.3644 64.8262 61.379 60.587C59.3937 56.3478 58.4031 51.5056 58.4074 46.0605C58.4117 40.5208 59.4335 35.6328 61.4727 31.3967C63.5357 27.137 66.4029 23.8129 70.0742 21.4247C73.7693 19.0128 78.0789 17.8088 83.0032 17.8126C86.8384 17.8156 90.2943 18.5285 93.3708 19.9513C96.4474 21.3742 98.9672 23.3648 100.93 25.9231C102.893 28.4814 104.11 31.4654 104.581 34.8748L96.2002 34.8683C95.5629 32.382 94.1442 30.1792 91.9439 28.2599C89.7674 26.3169 86.8326 25.344 83.1394 25.3411C79.8723 25.3386 77.0071 26.1886 74.5437 27.8912C72.1039 29.5702 70.1963 31.948 68.8208 35.0246C67.469 38.0775 66.7915 41.6636 66.7883 45.783C66.785 49.997 67.445 53.667 68.7684 56.793C70.1154 59.9191 72.0074 62.3471 74.4445 64.0773C76.9053 65.8074 79.7929 66.6737 83.1073 66.6763C85.2853 66.678 87.2624 66.3008 89.0386 65.5446C90.8147 64.7884 92.3189 63.7005 93.551 62.281C94.7832 60.8615 95.6605 59.1577 96.1828 57.1694L104.564 57.1759C104.088 60.3953 102.913 63.2945 101.041 65.8735C99.1926 68.4289 96.7407 70.463 93.6855 71.9757C90.6541 73.4649 87.126 74.2079 83.1014 74.2047ZM140.381 74.1072C134.463 74.1026 129.397 72.9268 125.185 70.5797C120.973 68.2091 117.744 64.9158 115.498 60.7001C113.253 56.4606 112.132 51.5473 112.136 45.9602C112.14 40.3731 113.269 35.4734 115.521 31.2611C117.774 27.0252 121.008 23.737 125.223 21.3965C129.439 19.0324 134.506 17.8526 140.425 17.8572C146.344 17.8618 151.409 19.0494 155.621 21.4201C159.833 23.7672 163.062 27.0604 165.308 31.2998C167.554 35.5156 168.675 40.417 168.67 46.0041C168.666 51.5913 167.538 56.5028 165.285 60.7387C163.033 64.951 159.799 68.2392 155.583 70.6034C151.367 72.9438 146.3 74.1118 140.381 74.1072ZM140.535 59.6187C142.192 59.6199 143.625 59.0647 144.833 57.953C146.041 56.8412 146.977 55.2558 147.642 53.1966C148.306 51.1375 148.64 48.6875 148.642 45.8465C148.644 42.982 148.315 40.5314 147.653 38.4949C146.992 36.4347 146.058 34.8478 144.852 33.7342C143.645 32.6206 142.213 32.0631 140.556 32.0618C138.804 32.0605 137.3 32.6157 136.045 33.7274C134.789 34.8391 133.829 36.4245 133.165 38.4837C132.5 40.5191 132.167 42.9692 132.165 45.8337C132.162 48.6747 132.492 51.1252 133.153 53.1854C133.815 55.2455 134.772 56.8325 136.026 57.9461C137.28 59.0598 138.783 59.6173 140.535 59.6187ZM195.353 74.434C191.896 74.4313 188.76 73.7778 185.944 72.4735C183.128 71.1456 180.892 69.2381 179.237 66.751C177.581 64.2402 176.755 61.2093 176.758 57.6582C176.76 54.5332 177.378 52.0005 178.61 50.0602C179.843 48.0962 181.489 46.5586 183.55 45.4475C185.61 44.3364 187.884 43.5096 190.37 42.967C192.88 42.4008 195.402 41.9529 197.935 41.6235C201.25 41.1999 203.937 40.8824 205.997 40.6709C208.08 40.4358 209.596 40.0464 210.543 39.5026C211.514 38.9588 212 38.0122 212.001 36.6628L212.002 36.3787C212.004 32.8749 211.048 30.1516 209.132 28.2089C207.239 26.2661 204.363 25.2932 200.505 25.2902C196.504 25.2871 193.366 26.1606 191.092 27.9108C188.818 29.6609 187.218 31.5299 186.294 33.5178L178.341 30.6707C179.764 27.3575 181.66 24.7784 184.029 22.9337C186.422 21.0653 189.027 19.7652 191.845 19.0335C194.686 18.2781 197.48 17.9015 200.226 17.9037C201.978 17.905 203.99 18.1196 206.263 18.5475C208.559 18.9518 210.772 19.7939 212.901 21.074C215.055 22.3541 216.841 24.2849 218.259 26.8665C219.677 29.4481 220.385 32.9051 220.382 37.2375L220.354 73.175L211.973 73.1685L211.979 65.7821L211.553 65.7818C210.984 66.9651 210.036 68.2309 208.709 69.5793C207.382 70.9277 205.617 72.0745 203.415 73.0198C201.212 73.965 198.525 74.4364 195.353 74.434ZM196.637 66.9066C199.951 66.9091 202.745 66.2603 205.019 64.96C207.317 63.6597 209.046 61.9801 210.208 59.9214C211.393 57.8626 211.987 55.6969 211.988 53.4242L211.994 45.7537C211.639 46.1796 210.857 46.5696 209.65 46.9238C208.466 47.2543 207.092 47.5491 205.53 47.8084C203.991 48.0439 202.487 48.2558 201.019 48.4441C199.575 48.6087 198.403 48.7498 197.503 48.8675C195.325 49.1499 193.289 49.6099 191.394 50.2477C189.523 50.8617 188.008 51.7957 186.847 53.0495C185.709 54.2797 185.14 55.9601 185.138 58.0908C185.136 61.0027 186.211 63.2053 188.365 64.6984C190.541 66.1679 193.299 66.904 196.637 66.9066ZM257.808 74.3405C252.695 74.3365 248.292 73.1257 244.601 70.708C240.91 68.2904 238.071 64.962 236.086 60.7227C234.101 56.4835 233.11 51.6413 233.114 46.1963C233.119 40.6565 234.14 35.7685 236.18 31.5324C238.243 27.2727 241.11 23.9487 244.781 21.5604C248.476 19.1485 252.786 17.9445 257.71 17.9483C261.545 17.9513 265.001 18.6642 268.078 20.0871C271.154 21.5099 273.674 23.5005 275.637 26.0588C277.6 28.6172 278.817 31.6011 279.288 35.0105L270.907 35.004C270.27 32.5177 268.851 30.3149 266.651 28.3956C264.474 26.4526 261.54 25.4797 257.846 25.4768C254.579 25.4743 251.714 26.3243 249.251 28.027C246.811 29.7059 244.903 32.0837 243.528 35.1603C242.176 38.2132 241.498 41.7994 241.495 45.9187C241.492 50.1327 242.152 53.8027 243.475 56.9287C244.822 60.0548 246.714 62.4829 249.151 64.213C251.612 65.9431 254.5 66.8095 257.814 66.812C259.992 66.8137 261.969 66.4365 263.746 65.6803C265.522 64.9241 267.026 63.8362 268.258 62.4167C269.49 60.9973 270.367 59.2934 270.89 57.3052L279.271 57.3117C278.795 60.531 277.62 63.4302 275.748 66.0092C273.9 68.5646 271.448 70.5987 268.393 72.1115C265.361 73.6006 261.833 74.3436 257.808 74.3405ZM299.916 40.4243L299.89 73.2368L291.51 73.2303L291.566 0.503018L299.947 0.509529L299.926 27.2141L300.636 27.2146C301.917 24.3984 303.836 22.1627 306.394 20.5074C308.976 18.8286 312.409 17.9908 316.695 17.9941C320.411 17.997 323.666 18.7453 326.458 20.2389C329.251 21.7089 331.415 23.9715 332.952 27.0267C334.512 30.0582 335.29 33.9177 335.286 38.6052L335.26 73.2643L326.879 73.2577L326.905 39.1669C326.909 34.8345 325.787 31.4837 323.54 29.1145C321.316 26.7217 318.228 25.5237 314.274 25.5207C311.528 25.5185 309.065 26.0966 306.886 27.255C304.731 28.4134 303.025 30.1047 301.769 32.3291C300.536 34.5536 299.918 37.2519 299.916 40.4243Z" fill="#ED3337"/>
<mask id="path-2-inside-1_0_1" fill="white">
<path d="M134.558 45.5836H134.573ZM140.605 45.5836H140.62ZM146.651 45.5836H146.666ZM154.209 45.5836C154.209 53.0852 148.117 59.1673 140.605 59.1673C138.38 59.1758 136.183 58.6252 134.173 57.5559L127 59.1673L129.109 52.8509C127.774 50.7488 127 48.2562 127 45.5836C127 38.0821 133.092 32 140.605 32C148.117 32 154.209 38.0821 154.209 45.5836Z"/>
</mask>
<path d="M134.558 45.5836H134.573ZM140.605 45.5836H140.62ZM146.651 45.5836H146.666ZM154.209 45.5836C154.209 53.0852 148.117 59.1673 140.605 59.1673C138.38 59.1758 136.183 58.6252 134.173 57.5559L127 59.1673L129.109 52.8509C127.774 50.7488 127 48.2562 127 45.5836C127 38.0821 133.092 32 140.605 32C148.117 32 154.209 38.0821 154.209 45.5836Z" fill="white"/>
<path d="M134.558 39.5836C131.244 39.5836 128.558 42.2699 128.558 45.5836C128.558 48.8974 131.244 51.5836 134.558 51.5836V39.5836ZM134.573 51.5836C137.887 51.5836 140.573 48.8974 140.573 45.5836C140.573 42.2699 137.887 39.5836 134.573 39.5836V51.5836ZM140.605 39.5836C137.291 39.5836 134.605 42.2699 134.605 45.5836C134.605 48.8974 137.291 51.5836 140.605 51.5836V39.5836ZM140.62 51.5836C143.933 51.5836 146.62 48.8974 146.62 45.5836C146.62 42.2699 143.933 39.5836 140.62 39.5836V51.5836ZM146.651 39.5836C143.337 39.5836 140.651 42.2699 140.651 45.5836C140.651 48.8974 143.337 51.5836 146.651 51.5836V39.5836ZM146.666 51.5836C149.98 51.5836 152.666 48.8974 152.666 45.5836C152.666 42.2699 149.98 39.5836 146.666 39.5836V51.5836ZM140.605 59.1673V53.1673C140.597 53.1673 140.589 53.1673 140.582 53.1673L140.605 59.1673ZM134.173 57.5559L136.99 52.2588C135.724 51.5849 134.257 51.3873 132.858 51.7018L134.173 57.5559ZM127 59.1673L121.309 57.2673C120.623 59.3205 121.097 61.5837 122.548 63.1898C123.999 64.7959 126.203 65.4958 128.315 65.0214L127 59.1673ZM129.109 52.8509L134.8 54.7509C135.372 53.0382 135.142 51.159 134.174 49.6346L129.109 52.8509ZM134.558 51.5836H134.573V39.5836H134.558V51.5836ZM140.605 51.5836H140.62V39.5836H140.605V51.5836ZM146.651 51.5836H146.666V39.5836H146.651V51.5836ZM148.209 45.5836C148.209 49.7627 144.813 53.1673 140.605 53.1673V65.1673C151.422 65.1673 160.209 56.4078 160.209 45.5836H148.209ZM140.582 53.1673C139.372 53.172 138.148 52.8744 136.99 52.2588L131.355 62.8531C134.218 64.3761 137.389 65.1796 140.628 65.1672L140.582 53.1673ZM132.858 51.7018L125.685 53.3132L128.315 65.0214L135.488 63.41L132.858 51.7018ZM132.691 61.0673L134.8 54.7509L123.418 50.9509L121.309 57.2673L132.691 61.0673ZM134.174 49.6346C133.43 48.4635 133 47.0814 133 45.5836H121C121 49.4311 122.118 53.0341 124.044 56.0671L134.174 49.6346ZM133 45.5836C133 41.4046 136.397 38 140.605 38V26C129.787 26 121 34.7595 121 45.5836H133ZM140.605 38C144.813 38 148.209 41.4046 148.209 45.5836H160.209C160.209 34.7595 151.422 26 140.605 26V38Z" fill="white" mask="url(#path-2-inside-1_0_1)"/>
<path d="M132.858 42.8409C132.367 42.8409 131.946 43.0166 131.595 43.3679C131.244 43.7192 131.068 44.1402 131.068 44.6307C131.068 45.1212 131.244 45.5421 131.595 45.8935C131.946 46.2448 132.367 46.4205 132.858 46.4205C133.348 46.4205 133.769 46.2448 134.121 45.8935C134.472 45.5421 134.648 45.1212 134.648 44.6307C134.648 44.3059 134.565 44.0076 134.399 43.7358C134.24 43.464 134.025 43.2453 133.753 43.0795C133.488 42.9205 133.189 42.8409 132.858 42.8409ZM140.569 42.8409C140.078 42.8409 139.657 43.0166 139.306 43.3679C138.955 43.7192 138.779 44.1402 138.779 44.6307C138.779 45.1212 138.955 45.5421 139.306 45.8935C139.657 46.2448 140.078 46.4205 140.569 46.4205C141.059 46.4205 141.48 46.2448 141.832 45.8935C142.183 45.5421 142.359 45.1212 142.359 44.6307C142.359 44.3059 142.276 44.0076 142.11 43.7358C141.951 43.464 141.736 43.2453 141.464 43.0795C141.199 42.9205 140.9 42.8409 140.569 42.8409ZM148.28 42.8409C147.789 42.8409 147.368 43.0166 147.017 43.3679C146.666 43.7192 146.49 44.1402 146.49 44.6307C146.49 45.1212 146.666 45.5421 147.017 45.8935C147.368 46.2448 147.789 46.4205 148.28 46.4205C148.77 46.4205 149.191 46.2448 149.543 45.8935C149.894 45.5421 150.07 45.1212 150.07 44.6307C150.07 44.3059 149.987 44.0076 149.821 43.7358C149.662 43.464 149.446 43.2453 149.175 43.0795C148.91 42.9205 148.611 42.8409 148.28 42.8409Z" fill="#808080"/>
<path d="M114.533 110.841V133H110.424V85.7273H114.533V103.108H114.902C115.733 101.277 117.018 99.8152 118.757 98.7227C120.511 97.6301 122.727 97.0838 125.405 97.0838C127.805 97.0838 129.914 97.5762 131.729 98.5611C133.545 99.5459 134.961 101 135.977 102.924C136.992 104.847 137.5 107.217 137.5 110.033V133H133.368V110.287C133.368 107.363 132.553 105.063 130.922 103.385C129.306 101.693 127.121 100.846 124.366 100.846C122.473 100.846 120.788 101.246 119.311 102.047C117.834 102.847 116.664 104.001 115.803 105.509C114.956 107.002 114.533 108.779 114.533 110.841ZM166.647 133V97.5455H170.779V133H166.647ZM168.748 91.4517C167.901 91.4517 167.178 91.167 166.578 90.5977C165.978 90.0129 165.678 89.3127 165.678 88.4972C165.678 87.6816 165.978 86.9891 166.578 86.4197C167.178 85.835 167.901 85.5426 168.748 85.5426C169.594 85.5426 170.317 85.835 170.918 86.4197C171.518 86.9891 171.818 87.6816 171.818 88.4972C171.818 89.3127 171.518 90.0129 170.918 90.5977C170.317 91.167 169.594 91.4517 168.748 91.4517ZM204.035 110.841V133H199.926V97.5455H203.92V103.108H204.289C205.12 101.292 206.412 99.8383 208.167 98.7457C209.936 97.6378 212.122 97.0838 214.722 97.0838C217.107 97.0838 219.2 97.5839 221.001 98.5842C222.816 99.569 224.224 101.023 225.225 102.947C226.24 104.87 226.748 107.232 226.748 110.033V133H222.639V110.287C222.639 107.379 221.824 105.078 220.193 103.385C218.577 101.693 216.407 100.846 213.683 100.846C211.821 100.846 210.167 101.246 208.721 102.047C207.274 102.847 206.128 104.001 205.281 105.509C204.45 107.002 204.035 108.779 204.035 110.841ZM259.958 110.841V133H255.849V97.5455H259.842V103.108H260.212C261.043 101.292 262.335 99.8383 264.09 98.7457C265.859 97.6378 268.044 97.0838 270.645 97.0838C273.03 97.0838 275.123 97.5839 276.923 98.5842C278.739 99.569 280.147 101.023 281.147 102.947C282.163 104.87 282.671 107.232 282.671 110.033V133H278.562V110.287C278.562 107.379 277.747 105.078 276.116 103.385C274.5 101.693 272.33 100.846 269.606 100.846C267.744 100.846 266.09 101.246 264.644 102.047C263.197 102.847 262.051 104.001 261.204 105.509C260.373 107.002 259.958 108.779 259.958 110.841ZM321.674 133.808C319.535 133.808 317.581 133.392 315.811 132.561C314.042 131.715 312.634 130.499 311.587 128.914C310.541 127.314 310.018 125.375 310.018 123.098C310.018 121.343 310.349 119.866 311.01 118.666C311.672 117.466 312.611 116.481 313.826 115.711C315.042 114.942 316.481 114.334 318.143 113.888C319.805 113.442 321.636 113.095 323.636 112.849C325.621 112.603 327.299 112.387 328.668 112.203C330.053 112.018 331.107 111.726 331.831 111.326C332.554 110.926 332.915 110.279 332.915 109.387V108.556C332.915 106.14 332.192 104.239 330.746 102.854C329.315 101.454 327.253 100.754 324.56 100.754C322.005 100.754 319.92 101.316 318.304 102.439C316.704 103.562 315.581 104.886 314.934 106.409L311.033 105.001C311.834 103.062 312.942 101.516 314.357 100.362C315.773 99.192 317.358 98.3533 319.112 97.8455C320.866 97.3223 322.644 97.0607 324.444 97.0607C325.798 97.0607 327.206 97.2377 328.668 97.5916C330.146 97.9455 331.515 98.5611 332.777 99.4382C334.039 100.3 335.062 101.508 335.847 103.062C336.632 104.601 337.024 106.555 337.024 108.925V133H332.915V127.391H332.662C332.169 128.437 331.438 129.453 330.469 130.438C329.499 131.423 328.284 132.231 326.822 132.862C325.36 133.492 323.644 133.808 321.674 133.808ZM322.228 130.045C324.413 130.045 326.306 129.561 327.907 128.591C329.507 127.622 330.738 126.337 331.6 124.737C332.477 123.121 332.915 121.343 332.915 119.404V114.28C332.608 114.573 332.092 114.834 331.369 115.065C330.661 115.296 329.838 115.504 328.899 115.688C327.976 115.857 327.053 116.004 326.129 116.127C325.206 116.25 324.375 116.358 323.636 116.45C321.636 116.696 319.928 117.081 318.512 117.604C317.096 118.127 316.011 118.85 315.257 119.774C314.503 120.682 314.126 121.851 314.126 123.282C314.126 125.437 314.896 127.106 316.435 128.291C317.973 129.461 319.905 130.045 322.228 130.045Z" fill="#808080"/>
</svg>