<svg width="100" height="100" viewBox="0 0 100 100" fill="none" xmlns="http://www.w3.org/2000/svg">
<path fill-rule="evenodd" clip-rule="evenodd" d="M47.1909 0.0477612C47.1601 0.082602 46.6734 0.15858 46.1092 0.216508C44.4886 0.383156 44.1068 0.442658 44.0069 0.544032C43.9555 0.596189 43.8259 0.638795 43.7189 0.638795C43.6119 0.638795 43.3884 0.682871 43.2223 0.736601C43.0562 0.790436 42.7212 0.89307 42.4779 0.964745C42.2345 1.03642 41.9934 1.13412 41.942 1.18177C41.8907 1.22941 41.7696 1.26845 41.6732 1.26845C41.5767 1.26845 41.2237 1.41012 40.8888 1.58327C40.5538 1.75643 40.225 1.8981 40.1579 1.8981C40.0909 1.8981 40.0213 1.93389 40.0032 1.97765C39.9853 2.02151 39.6829 2.21922 39.3314 2.41704C38.9798 2.61496 38.6334 2.83912 38.5617 2.9153C38.4899 2.99149 38.335 3.10808 38.2175 3.17441C37.4959 3.58179 36.0081 5.1554 35.358 6.19884C34.8989 6.93574 34.4903 7.81589 34.3337 8.40451C34.28 8.60652 34.1825 8.95619 34.117 9.18161C33.9702 9.68669 33.9592 12.1211 34.1015 12.6122C34.1584 12.8087 34.2603 13.182 34.3278 13.4417C34.4623 13.9587 35.0359 15.2517 35.2883 15.6071C35.3758 15.7303 35.5138 15.9399 35.5949 16.0729C35.9162 16.5996 37.2892 18.0354 37.946 18.5314C38.5725 19.0045 38.8113 19.3185 38.5447 19.3185C38.4907 19.3185 38.4466 19.3776 38.4469 19.4497C38.4476 19.617 37.0492 22.6124 36.9485 22.6591C36.9071 22.6784 36.8732 22.7807 36.8732 22.8865C36.8732 22.9923 36.8204 23.0977 36.756 23.1206C36.6858 23.1455 36.6386 23.375 36.6386 23.6911C36.6386 24.381 36.9657 24.7755 37.5374 24.7755C37.9204 24.7755 38.4442 24.5787 38.4456 24.4344C38.446 24.3912 38.5349 24.3557 38.6431 24.3557C38.7512 24.3557 38.8401 24.3202 38.8405 24.277C38.8409 24.2338 38.9405 24.1464 39.0618 24.0828C39.4943 23.8561 40.1679 23.4628 40.2163 23.4087C40.2434 23.3784 40.4756 23.2368 40.7325 23.094C40.9895 22.9513 41.1996 22.7989 41.1996 22.7556C41.1996 22.7121 41.2845 22.6766 41.3881 22.6766C41.4917 22.6766 41.5912 22.6409 41.6093 22.5971C41.6273 22.5532 41.9297 22.3565 42.2812 22.1598C42.6327 21.963 42.9425 21.7693 42.9695 21.7293C42.9966 21.6892 43.1598 21.5794 43.3323 21.485C43.5924 21.3428 43.7518 21.3311 44.2664 21.4163C47.7197 21.988 49.9265 21.9387 52.7532 21.2264C53.6918 20.9899 56.3256 19.9324 56.4376 19.7471C56.4663 19.6996 56.733 19.5304 57.0305 19.371C57.3279 19.2116 57.5934 19.0517 57.6205 19.0158C57.6475 18.9799 57.867 18.8091 58.1083 18.6361C58.5861 18.2934 59.2716 17.6564 59.6752 17.18C59.816 17.0138 60.1193 16.6639 60.3491 16.4024C60.5789 16.1409 60.767 15.8853 60.767 15.8343C60.767 15.7834 60.8555 15.6403 60.9636 15.5164C61.0718 15.3925 61.1603 15.2292 61.1603 15.1534C61.1603 15.0778 61.2045 15.0159 61.2586 15.0159C61.3127 15.0159 61.3569 14.9214 61.3569 14.806C61.3569 14.6905 61.3915 14.5961 61.4338 14.5961C61.4761 14.5961 61.572 14.3718 61.647 14.0976C61.7219 13.8234 61.8158 13.5283 61.8556 13.4417C62.1094 12.8882 62.1916 12.2355 62.1793 10.8707C62.1655 9.35843 62.0129 8.58575 61.4896 7.37944C60.9146 6.05391 58.9405 3.69922 58.0026 3.22006C57.9006 3.168 57.8171 3.09108 57.8171 3.04921C57.8171 3.00723 57.6844 2.91425 57.5221 2.84258C57.3599 2.7709 57.2271 2.67971 57.2271 2.63994C57.2271 2.60027 56.7294 2.31787 56.1209 2.01238C55.5126 1.7069 54.938 1.41453 54.8441 1.36269C54.7501 1.31084 54.5842 1.26845 54.4753 1.26845C54.3664 1.26845 54.2773 1.22122 54.2773 1.16351C54.2773 1.10579 54.1445 1.05856 53.9823 1.05856C53.8201 1.05856 53.6873 1.01648 53.6873 0.96506C53.6873 0.913743 53.5436 0.846266 53.3677 0.815308C53.1919 0.784245 52.8491 0.705014 52.6057 0.639005C51.2982 0.28493 47.3611 -0.145017 47.1909 0.0477612ZM26.3337 19.2181C23.8598 19.526 21.4697 21.2758 20.3829 23.5747C19.591 25.2497 19.2691 26.9955 19.4709 28.5208C19.7916 30.9446 20.6879 32.6615 22.4164 34.1627C23.5327 35.1322 24.7274 35.6653 26.3247 35.9066C27.9166 36.1471 29.8824 35.7258 31.237 34.8538C31.8069 34.4869 32.4878 33.9503 32.7842 33.6342C32.956 33.4509 33.766 32.4217 33.8832 32.2376C34.0103 32.0379 34.6015 30.7956 34.7124 30.4948C35.2971 28.9097 35.2902 26.4106 34.6961 24.6181C34.5614 24.2116 34.3809 23.7928 34.3116 23.7261C34.2817 23.6972 34.1851 23.5078 34.0968 23.3051C33.9083 22.872 33.48 22.303 32.7947 21.5747C32.0616 20.7958 31.8391 20.6226 30.9786 20.1608C29.9087 19.5866 29.5039 19.4451 28.4169 19.2648C27.407 19.0973 27.3196 19.0953 26.3337 19.2181ZM71.5339 19.2615C71.1013 19.3342 70.5373 19.4707 70.2806 19.5646C69.7931 19.7431 68.2267 20.5544 68.1416 20.6725C68.1146 20.7099 67.8933 20.9041 67.65 21.1037C67.1159 21.5419 67.0824 21.5774 66.7419 22.0641C66.594 22.2755 66.4124 22.5132 66.3384 22.5922C66.2644 22.6712 66.0536 23.0412 65.8699 23.4146C65.6862 23.7879 65.5136 24.117 65.4862 24.1458C65.4153 24.2206 65.2306 24.8229 65.0355 25.615C64.8081 26.5387 64.8051 28.8261 65.0305 29.4979C65.1176 29.7576 65.1895 30.0534 65.1903 30.1552C65.1911 30.257 65.2304 30.4223 65.2777 30.5225C65.325 30.6228 65.4533 30.8936 65.5627 31.1245C66.409 32.9087 67.2331 33.869 68.763 34.8538C70.1176 35.7258 72.0834 36.1471 73.6753 35.9066C74.1719 35.8317 74.8269 35.6854 75.1311 35.5817C77.4816 34.7803 79.4498 32.679 80.1721 30.1997C80.8667 27.8154 80.7032 25.8587 79.6188 23.5747C78.5006 21.2197 76.1551 19.534 73.5497 19.2132C72.5604 19.0914 72.5441 19.0918 71.5339 19.2615ZM18.4857 39.0469C18.4046 39.0975 18.1281 39.1995 17.8712 39.2735C17.6143 39.3476 17.4041 39.4451 17.4041 39.4903C17.4041 39.5354 17.3156 39.5723 17.2075 39.5723C17.0993 39.5723 17.0108 39.6195 17.0108 39.6773C17.0108 39.735 16.9321 39.7822 16.8359 39.7822C16.7396 39.7822 16.5971 39.8766 16.5192 39.9921C16.4412 40.1075 16.3237 40.202 16.258 40.202C16.1026 40.202 15.0442 41.3315 15.0442 41.4974C15.0442 41.5675 14.9558 41.6929 14.8476 41.7761C14.7394 41.8593 14.6509 42.0114 14.6509 42.1141C14.6509 42.2168 14.6067 42.3008 14.5526 42.3008C14.4985 42.3008 14.4543 42.3953 14.4543 42.5107C14.4543 42.6261 14.41 42.7206 14.3559 42.7206C14.3019 42.7206 14.2576 42.8386 14.2576 42.9829C14.2576 43.1272 14.2134 43.2453 14.1593 43.2453C14.1052 43.2453 14.061 43.4106 14.061 43.6126C14.061 43.8146 14.0167 43.9799 13.9626 43.9799C13.8976 43.9799 13.8643 48.0551 13.8643 55.9958C13.8643 63.9364 13.8976 68.0116 13.9626 68.0116C14.0167 68.0116 14.061 68.2241 14.061 68.4839C14.061 68.7436 14.1052 68.9561 14.1593 68.9561C14.2134 68.9561 14.2576 69.0978 14.2576 69.2709C14.2576 69.4441 14.3019 69.5858 14.3559 69.5858C14.41 69.5858 14.4543 69.6802 14.4543 69.7956C14.4543 69.9111 14.4985 70.0055 14.5526 70.0055C14.6067 70.0055 14.6509 70.0764 14.6509 70.1629C14.6509 70.2495 14.6952 70.3204 14.7493 70.3204C14.8033 70.3204 14.8476 70.3912 14.8476 70.4778C14.8476 70.5643 14.8844 70.6352 14.9293 70.6352C14.9742 70.6352 15.0738 70.7645 15.1505 70.9225C15.3317 71.2956 16.0835 72.1044 16.2491 72.1044C16.3197 72.1044 16.4412 72.1988 16.5192 72.3143C16.5971 72.4297 16.7396 72.5241 16.8359 72.5241C16.9321 72.5241 17.0108 72.5714 17.0108 72.6291C17.0108 72.6868 17.0993 72.734 17.2075 72.734C17.3156 72.734 17.4041 72.7812 17.4041 72.839C17.4041 72.8967 17.4926 72.9439 17.6008 72.9439C17.7089 72.9439 17.7974 72.9911 17.7974 73.0488C17.7974 73.1066 17.8859 73.1538 17.9941 73.1538C18.1023 73.1538 18.1908 73.201 18.1908 73.2587C18.1908 73.4286 11.2291 73.3996 11.0692 73.229C10.9359 73.0867 10.8375 72.6736 10.751 71.8945C10.7223 71.6348 10.6588 71.3774 10.6099 71.3225C10.5611 71.2678 10.5211 71.0292 10.5211 70.7926C10.5211 70.5559 10.4812 70.3174 10.4324 70.2626C10.3835 70.2077 10.3186 69.9504 10.288 69.6907C10.1446 68.4723 10.1109 68.26 10.0295 68.0641C9.98151 67.9487 9.92085 67.6653 9.89449 67.4344C9.86814 67.2036 9.80128 66.7786 9.74572 66.49C9.69027 66.2014 9.59459 65.6819 9.53314 65.3356C9.47158 64.9893 9.38525 64.5171 9.3412 64.2862C9.29715 64.0553 9.20865 63.5831 9.14454 63.2368C9.08043 62.8904 8.99194 62.4182 8.94789 62.1873C8.79725 61.3983 8.63323 60.5086 8.54159 59.9836C8.49115 59.695 8.40708 59.2345 8.35477 58.9604C8.11504 57.7051 8.0647 57.4284 7.97748 56.8878C7.92625 56.5703 7.50688 54.28 7.04553 51.7981C6.58427 49.3162 6.13019 46.8369 6.03648 46.2886C5.83009 45.0801 5.25467 43.77 4.93019 43.77C4.86853 43.77 4.81809 43.7228 4.81809 43.6651C4.81809 43.6073 4.75172 43.5601 4.6706 43.5601C4.58948 43.5601 4.52271 43.5248 4.52232 43.4814C4.52134 43.3749 4.03491 43.1403 3.81524 43.1403C3.7178 43.1403 3.63815 43.0931 3.63815 43.0354C3.63815 42.9762 3.35959 42.9305 2.99902 42.9305C2.63845 42.9305 2.35988 42.9762 2.35988 43.0354C2.35988 43.0931 2.22714 43.1403 2.0649 43.1403C1.90265 43.1403 1.76991 43.1876 1.76991 43.2453C1.76991 43.303 1.69764 43.3502 1.60934 43.3502C1.52104 43.3502 1.37729 43.4362 1.28977 43.5411C1.20236 43.6462 1.05339 43.7628 0.958702 43.8002C0.864012 43.8377 0.786627 43.9302 0.786627 44.0059C0.786627 44.0816 0.698132 44.2115 0.589971 44.2947C0.481809 44.3779 0.393314 44.53 0.393314 44.6327C0.393314 44.7354 0.349066 44.8194 0.294985 44.8194C0.240905 44.8194 0.196657 44.9375 0.196657 45.0818C0.196657 45.2261 0.152409 45.3441 0.0983284 45.3441C0.0414946 45.3441 0 45.6765 0 46.1312C0 46.5859 0.0414946 46.9183 0.0983284 46.9183C0.152409 46.9183 0.196657 47.1544 0.196657 47.443C0.196657 47.7316 0.240905 47.9677 0.294985 47.9677C0.349066 47.9677 0.393314 48.2274 0.393314 48.5449C0.393314 48.8623 0.437561 49.122 0.491642 49.122C0.545723 49.122 0.589971 49.3582 0.589971 49.6468C0.589971 49.9354 0.634218 50.1715 0.688299 50.1715C0.74238 50.1715 0.786627 50.4048 0.786627 50.69C0.786627 50.9752 0.830875 51.2377 0.884956 51.2734C0.939036 51.309 0.983284 51.5452 0.983284 51.7981C0.983284 52.051 1.02753 52.2871 1.08161 52.3228C1.13569 52.3585 1.17994 52.5946 1.17994 52.8475C1.17994 53.1004 1.22419 53.3365 1.27827 53.3722C1.33235 53.4079 1.3766 53.644 1.3766 53.8969C1.3766 54.1498 1.42085 54.3859 1.47493 54.4216C1.52901 54.4573 1.57325 54.6867 1.57325 54.9315C1.57325 55.1764 1.61318 55.4214 1.66205 55.4763C1.71091 55.5311 1.77463 55.7885 1.80374 56.0482C1.83284 56.308 1.90354 56.7683 1.96077 57.0714C2.01809 57.3745 2.10914 57.8585 2.16323 58.1471C2.21731 58.4357 2.30806 58.9197 2.3649 59.2227C2.42173 59.5258 2.49056 59.9626 2.51799 60.1934C2.54533 60.4243 2.60688 60.7077 2.65487 60.8231C2.70285 60.9385 2.76441 61.2219 2.79174 61.4527C2.83854 61.8476 2.92606 62.354 3.14966 63.5253C3.39459 64.8082 3.45497 65.1551 3.50128 65.5455C3.52861 65.7764 3.58997 66.0597 3.63766 66.1751C3.68525 66.2906 3.7473 66.5503 3.77542 66.7523C3.80364 66.9543 3.87493 67.3793 3.93402 67.6968C3.99312 68.0142 4.06382 68.4629 4.09125 68.6937C4.11858 68.9246 4.17925 69.208 4.22616 69.3234C4.27306 69.4388 4.33432 69.7222 4.36234 69.9531C4.39027 70.1839 4.4645 70.6562 4.52724 71.0025C4.58987 71.3488 4.68102 71.8565 4.7296 72.1306C4.77827 72.4047 4.86234 72.8652 4.91642 73.1538C4.9705 73.4424 5.059 73.9146 5.11308 74.2032C5.16716 74.4918 5.25565 74.964 5.30973 75.2526C5.36382 75.5412 5.4468 76.0017 5.4941 76.2758C5.8174 78.1501 6.71091 79.2955 8.01377 79.5059C8.80128 79.633 8.94789 79.6792 8.94828 79.7997C8.94857 79.8672 8.76745 80.4184 8.54572 81.0244C8.05703 82.3609 8.04277 82.4002 7.78574 83.1233C7.67286 83.4407 7.37552 84.2672 7.12488 84.9598C6.87424 85.6524 6.55998 86.526 6.42655 86.9012C6.29312 87.2764 6.11996 87.7384 6.04179 87.928C5.96362 88.1175 5.89971 88.3187 5.89971 88.3751C5.89971 88.4315 5.81642 88.6778 5.71465 88.9225C5.61288 89.1671 5.47493 89.5326 5.40806 89.7346C5.3412 89.9367 5.20324 90.3022 5.10148 90.5468C4.99971 90.7915 4.91642 91.0399 4.91642 91.0989C4.91642 91.1579 4.83314 91.4063 4.73137 91.651C4.6296 91.8956 4.49243 92.2611 4.42645 92.4631C4.36057 92.6651 4.26686 92.9367 4.21819 93.0666C3.99086 93.6739 3.90374 93.8934 3.8233 94.062C3.77552 94.1623 3.73648 94.3394 3.73648 94.4556C3.73648 94.5718 3.69223 94.6669 3.63815 94.6669C3.58407 94.6669 3.53982 94.7585 3.53982 94.8706C3.53982 94.9827 3.49558 95.1035 3.44149 95.1392C3.38741 95.1748 3.34317 95.3192 3.34317 95.4602C3.34317 95.6011 3.29892 95.7163 3.24484 95.7163C3.19076 95.7163 3.14651 95.8114 3.14651 95.9277C3.14651 96.0439 3.10747 96.221 3.05969 96.3212C2.81672 96.8309 2.6468 97.4777 2.65339 97.8677C2.65831 98.1598 2.7826 98.7597 2.83825 98.7597C2.87325 98.7597 2.95742 98.8937 3.02537 99.0574C3.09322 99.2212 3.27001 99.4218 3.41809 99.5033C3.56618 99.5847 3.71514 99.6922 3.74916 99.7421C3.78319 99.7921 4.13845 99.8352 4.53854 99.8379C5.16903 99.8424 5.31957 99.8051 5.66785 99.5591C5.90059 99.3948 6.17444 99.0673 6.31839 98.7814C6.54572 98.3297 8.16126 93.9549 8.16126 93.7909C8.16126 93.7519 8.24454 93.52 8.34631 93.2753C8.44808 93.0307 8.58594 92.6651 8.6528 92.4631C8.71957 92.2611 8.83206 91.9542 8.90275 91.781C8.97335 91.6079 9.09656 91.2773 9.1764 91.0464C9.65703 89.658 9.76765 89.3567 9.83156 89.2624C9.8706 89.2047 9.96293 88.9331 10.0367 88.659C10.1104 88.3849 10.2053 88.1605 10.2476 88.1605C10.2899 88.1605 10.3245 88.0188 10.3245 87.8457C10.3245 87.6725 10.3608 87.5309 10.405 87.5309C10.4494 87.5309 10.5458 87.2947 10.6195 87.0061C10.6931 86.7176 10.7816 86.4814 10.8161 86.4814C10.8506 86.4814 10.9391 86.2453 11.0128 85.9567C11.0864 85.6681 11.1829 85.432 11.2272 85.432C11.2715 85.432 11.3078 85.3369 11.3078 85.2207C11.3078 85.1045 11.352 84.9156 11.4061 84.8009C11.4602 84.6863 11.5487 84.4987 11.6028 84.3841C11.6568 84.2694 11.7011 84.0805 11.7011 83.9643C11.7011 83.848 11.7453 83.7529 11.7994 83.7529C11.8535 83.7529 11.8977 83.6349 11.8977 83.4906C11.8977 83.3463 11.942 83.2282 11.9961 83.2282C12.0501 83.2282 12.0944 83.1102 12.0944 82.9659C12.0944 82.8216 12.1386 82.7035 12.1927 82.7035C12.2468 82.7035 12.2911 82.6084 12.2911 82.4922C12.2911 82.376 12.3301 82.1989 12.3779 82.0986C12.4257 81.9984 12.5194 81.7748 12.586 81.6016C12.6527 81.4285 12.7464 81.2048 12.7942 81.1046C12.842 81.0044 12.881 80.8273 12.881 80.7111C12.881 80.5948 12.9253 80.4997 12.9794 80.4997C13.0334 80.4997 13.0777 80.3817 13.0777 80.2374C13.0777 80.0931 13.1219 79.975 13.176 79.975C13.2301 79.975 13.2743 79.9042 13.2743 79.8176C13.2743 79.6795 13.9663 79.6602 18.9116 79.6602H24.5489L24.6753 79.9488C24.7448 80.1076 24.8408 80.3193 24.8886 80.4196C24.9364 80.5198 24.9754 80.6969 24.9754 80.8131C24.9754 80.9294 25.01 81.0244 25.0523 81.0244C25.0946 81.0244 25.1905 81.2488 25.2655 81.5229C25.3404 81.797 25.4334 82.0922 25.4721 82.1788C25.5108 82.2654 25.5971 82.4779 25.6637 82.651C25.7304 82.8242 25.8241 83.0478 25.8719 83.1481C25.9197 83.2483 25.9587 83.4254 25.9587 83.5416C25.9587 83.6579 26.003 83.7529 26.057 83.7529C26.1111 83.7529 26.1554 83.8682 26.1554 84.0091C26.1554 84.15 26.1996 84.2944 26.2537 84.3301C26.3078 84.3658 26.352 84.4866 26.352 84.5987C26.352 84.7107 26.3963 84.8024 26.4503 84.8024C26.5044 84.8024 26.5487 84.944 26.5487 85.1172C26.5487 85.2903 26.5929 85.432 26.647 85.432C26.7011 85.432 26.7453 85.5265 26.7453 85.6419C26.7453 85.7573 26.7896 85.8518 26.8437 85.8518C26.8977 85.8518 26.942 85.9935 26.942 86.1666C26.942 86.3398 26.9783 86.4814 27.0225 86.4814C27.0669 86.4814 27.1633 86.7176 27.237 87.0061C27.3106 87.2947 27.4071 87.5309 27.4514 87.5309C27.4957 87.5309 27.532 87.6725 27.532 87.8457C27.532 88.0188 27.5762 88.1605 27.6303 88.1605C27.6844 88.1605 27.7286 88.255 27.7286 88.3704C27.7286 88.4858 27.7729 88.5803 27.8269 88.5803C27.881 88.5803 27.9253 88.7219 27.9253 88.8951C27.9253 89.0683 27.9695 89.2099 28.0236 89.2099C28.0777 89.2099 28.1219 89.3044 28.1219 89.4198C28.1219 89.5353 28.1662 89.6297 28.2203 89.6297C28.2743 89.6297 28.3186 89.7675 28.3186 89.9358C28.3186 90.1041 28.3739 90.2694 28.4415 90.3031C28.5398 90.352 28.5398 90.3766 28.4415 90.4255C28.3738 90.4592 28.3186 90.5772 28.3186 90.6878C28.3186 90.7985 28.2743 90.889 28.2203 90.889C28.1662 90.889 28.1219 91.0307 28.1219 91.2038C28.1219 91.377 28.0777 91.5187 28.0236 91.5187C27.9695 91.5187 27.9253 91.6131 27.9253 91.7285C27.9253 91.844 27.881 91.9384 27.8269 91.9384C27.7729 91.9384 27.7286 92.0801 27.7286 92.2533C27.7286 92.4264 27.6844 92.5681 27.6303 92.5681C27.5762 92.5681 27.532 92.6597 27.532 92.7718C27.532 92.8838 27.4877 93.0046 27.4336 93.0403C27.3795 93.076 27.3353 93.2204 27.3353 93.3613C27.3353 93.5023 27.2911 93.6175 27.237 93.6175C27.1829 93.6175 27.1386 93.7592 27.1386 93.9323C27.1386 94.1055 27.0944 94.2472 27.0403 94.2472C26.981 94.2472 26.942 94.6823 26.942 95.3428C26.942 95.9601 26.985 96.4669 27.0403 96.5034C27.0944 96.5391 27.1386 96.6555 27.1386 96.7621C27.1386 96.9716 27.5341 97.8454 27.6549 97.9026C27.6955 97.9219 27.7299 97.9927 27.7316 98.06C27.7331 98.1274 27.8675 98.3005 28.03 98.4448C28.1926 98.5891 28.459 98.8346 28.622 98.9904C28.7852 99.1462 29.0048 99.3028 29.1102 99.3385C29.2156 99.3742 29.3019 99.4372 29.3019 99.4784C29.3019 99.5565 29.7735 99.7098 30.6539 99.9179C31.0462 100.011 31.294 100.011 31.6863 99.9179C32.5866 99.7051 33.0383 99.5559 33.0383 99.4714C33.0383 99.4263 33.1268 99.3893 33.235 99.3893C33.3432 99.3893 33.4317 99.3421 33.4317 99.2844C33.4317 99.2267 33.4754 99.1794 33.5289 99.1794C33.7621 99.1794 34.5206 98.3666 34.8543 97.759C34.99 97.5119 35.4567 96.349 35.8916 95.1749C36.3265 94.001 36.7252 92.9584 36.7777 92.8581C36.8302 92.7579 36.8732 92.6257 36.8732 92.5644C36.8732 92.5031 36.9617 92.2576 37.0698 92.0186C37.178 91.7796 37.2665 91.5435 37.2665 91.4939C37.2665 91.4442 37.3487 91.2219 37.4493 90.9998C37.5498 90.7778 37.6921 90.3787 37.7657 90.1129C37.8392 89.8471 37.926 89.6297 37.9585 89.6297C37.991 89.6297 38.0778 89.3936 38.1514 89.105C38.2251 88.8164 38.3136 88.5803 38.3481 88.5803C38.3826 88.5803 38.4711 88.3442 38.5447 88.0556C38.6184 87.767 38.7148 87.5309 38.7592 87.5309C38.8034 87.5309 38.8397 87.4156 38.8397 87.2747C38.8397 87.1338 38.884 86.9894 38.9381 86.9537C38.9921 86.918 39.0364 86.7972 39.0364 86.6851C39.0364 86.573 39.0806 86.4814 39.1347 86.4814C39.1888 86.4814 39.233 86.3864 39.233 86.2701C39.233 86.1539 39.2721 85.9768 39.3199 85.8766C39.3677 85.7763 39.4561 85.5646 39.5165 85.4058C39.5769 85.247 39.6765 84.9874 39.7379 84.8286C39.7991 84.6698 39.8817 84.4456 39.9213 84.3301C40.0288 84.017 40.2277 83.5147 40.3262 83.3084C40.3739 83.2082 40.413 83.031 40.413 82.9149C40.413 82.7986 40.4572 82.7035 40.5113 82.7035C40.5654 82.7035 40.6096 82.6119 40.6096 82.4998C40.6096 82.3878 40.6539 82.267 40.708 82.2313C40.762 82.1956 40.8063 82.0512 40.8063 81.9103C40.8063 81.7693 40.8505 81.6541 40.9046 81.6541C40.9587 81.6541 41.003 81.536 41.003 81.3917C41.003 81.2474 41.0472 81.1294 41.1013 81.1294C41.1554 81.1294 41.1996 81.0113 41.1996 80.867C41.1996 80.7227 41.2439 80.6047 41.2979 80.6047C41.352 80.6047 41.3963 80.4866 41.3963 80.3423C41.3963 80.198 41.4405 80.08 41.4946 80.08C41.5487 80.08 41.5929 79.9619 41.5929 79.8176C41.5929 79.6733 41.6372 79.5553 41.6912 79.5553C41.7453 79.5553 41.7896 79.4372 41.7896 79.2929C41.7896 79.1486 41.8338 79.0305 41.8879 79.0305C41.942 79.0305 41.9862 78.9125 41.9862 78.7682C41.9862 78.6239 42.0305 78.5058 42.0846 78.5058C42.1386 78.5058 42.1829 78.3878 42.1829 78.2435C42.1829 78.0992 42.2271 77.9811 42.2812 77.9811C42.3353 77.9811 42.3795 77.8631 42.3795 77.7188C42.3795 77.5745 42.4238 77.4564 42.4779 77.4564C42.532 77.4564 42.5762 77.3384 42.5762 77.1941C42.5762 77.0498 42.6205 76.9317 42.6745 76.9317C42.7286 76.9317 42.7729 76.8136 42.7729 76.6693C42.7729 76.5251 42.8171 76.407 42.8712 76.407C42.9253 76.407 42.9695 76.2889 42.9695 76.1446C42.9695 76.0003 43.0138 75.8823 43.0678 75.8823C43.1219 75.8823 43.1662 75.7406 43.1662 75.5675C43.1662 75.3943 43.2104 75.2526 43.2645 75.2526C43.3186 75.2526 43.3628 75.1582 43.3628 75.0427C43.3628 74.9273 43.4071 74.8329 43.4612 74.8329C43.5152 74.8329 43.5595 74.6912 43.5595 74.518C43.5595 74.3449 43.6037 74.2032 43.6578 74.2032C43.7119 74.2032 43.7561 74.1088 43.7561 73.9933C43.7561 73.8779 43.8004 73.7834 43.8545 73.7834C43.9086 73.7834 43.9528 73.6418 43.9528 73.4686C43.9528 73.2955 43.9971 73.1538 44.0511 73.1538C44.1052 73.1538 44.1495 73.0593 44.1495 72.9439C44.1495 72.8285 44.1937 72.734 44.2478 72.734C44.3019 72.734 44.3461 72.5923 44.3461 72.4192C44.3461 72.246 44.3904 72.1044 44.4444 72.1044C44.4985 72.1044 44.5428 72.0099 44.5428 71.8945C44.5428 71.779 44.587 71.6846 44.6411 71.6846C44.6952 71.6846 44.7394 71.5429 44.7394 71.3698C44.7394 71.1966 44.7837 71.0549 44.8378 71.0549C44.8918 71.0549 44.9361 70.9133 44.9361 70.7401C44.9361 70.567 44.9803 70.4253 45.0344 70.4253C45.0885 70.4253 45.1327 70.2628 45.1327 70.0642C45.1327 69.8655 45.177 69.6739 45.2311 69.6382C45.2852 69.6025 45.3294 69.3428 45.3294 69.061C45.3294 68.7793 45.2852 68.5195 45.2311 68.4839C45.177 68.4482 45.1327 68.2357 45.1327 68.0116C45.1327 67.7876 45.0885 67.5751 45.0344 67.5394C44.9803 67.5037 44.9361 67.3829 44.9361 67.2708C44.9361 67.1588 44.8918 67.0671 44.8378 67.0671C44.7837 67.0671 44.7394 66.9727 44.7394 66.8573C44.7394 66.7418 44.6952 66.6474 44.6411 66.6474C44.587 66.6474 44.5428 66.598 44.5428 66.5374C44.5428 66.4402 43.8229 65.6483 43.4344 65.3182C43.0961 65.0305 42.2804 64.664 41.743 64.5579C41.3605 64.4824 38.8349 64.4436 34.3133 64.4436C30.4307 64.4436 27.3394 64.4019 27.1779 64.3474C27.0211 64.2944 26.7742 64.2234 26.6293 64.1897C26.4844 64.1561 26.3052 64.0638 26.2312 63.9848C26.1571 63.9058 25.966 63.7682 25.8064 63.6791C25.2241 63.3537 24.5073 62.4706 24.1112 61.5905C23.9376 61.2046 23.7955 60.8344 23.7955 60.768C23.7955 60.7017 23.6627 60.2028 23.5005 59.6595C23.1157 58.3712 22.6734 56.8384 22.5339 56.3106C22.473 56.0797 22.0885 54.7115 21.6795 53.2702C21.2706 51.8288 20.9489 50.5594 20.9646 50.4493C20.9889 50.2786 21.7202 51.563 22.5093 53.1623C22.5948 53.3355 22.6879 53.5008 22.7162 53.5296C22.7445 53.5585 22.918 53.889 23.1017 54.2642C23.2853 54.6394 23.4724 54.9621 23.5172 54.9813C23.5621 55.0006 23.5988 55.1068 23.5988 55.2174C23.5988 55.3281 23.6321 55.4193 23.6726 55.4203C23.7131 55.4212 23.9002 55.7518 24.0882 56.1548C24.2762 56.5579 24.4643 56.8878 24.5061 56.8878C24.5479 56.8878 24.5821 56.9822 24.5821 57.0976C24.5821 57.2131 24.6264 57.3075 24.6804 57.3075C24.7345 57.3075 24.7788 57.402 24.7788 57.5174C24.7788 57.6329 24.8176 57.7273 24.8652 57.7273C24.9127 57.7273 25.0066 57.869 25.0737 58.0421C25.1409 58.2153 25.2348 58.357 25.2823 58.357C25.3299 58.357 25.3687 58.4514 25.3687 58.5668C25.3687 58.6823 25.413 58.7767 25.4671 58.7767C25.5211 58.7767 25.5654 58.8712 25.5654 58.9866C25.5654 59.102 25.5992 59.1965 25.6405 59.1965C25.6818 59.1965 25.7881 59.3736 25.8766 59.59C25.9651 59.8065 26.1525 60.1252 26.293 60.2984C26.4335 60.4715 26.5485 60.6508 26.5486 60.6966C26.5488 60.8249 26.9597 61.2255 27.2616 61.3918C27.4102 61.4736 27.532 61.5799 27.532 61.6279C27.532 61.6759 27.6205 61.7151 27.7286 61.7151C27.8368 61.7151 27.9253 61.7572 27.9253 61.8086C27.9253 61.8599 28.0912 61.9381 28.294 61.9822C28.8788 62.1094 44.5428 62.1566 44.5428 62.0312C44.5428 61.9727 44.6755 61.925 44.8378 61.925C45 61.925 45.1327 61.8778 45.1327 61.82C45.1327 61.7623 45.2212 61.7151 45.3294 61.7151C45.4376 61.7151 45.5261 61.6679 45.5261 61.6102C45.5261 61.5524 45.5838 61.5052 45.6544 61.5052C45.8165 61.5052 46.3982 60.9309 46.6962 60.4766C47.0835 59.8859 47.296 59.107 47.296 58.278C47.296 57.5321 47.1258 56.6779 46.9771 56.6779C46.9361 56.6779 46.9027 56.6007 46.9027 56.5065C46.9027 56.4123 46.8241 56.2588 46.728 56.1654C46.6321 56.0722 46.4761 55.8659 46.3816 55.7072C46.2871 55.5484 46.1543 55.4186 46.0863 55.4186C46.0184 55.4186 45.899 55.3241 45.821 55.2087C45.7431 55.0933 45.6006 54.9988 45.5043 54.9988C45.4082 54.9988 45.3294 54.9516 45.3294 54.8939C45.3294 54.8361 45.2445 54.7889 45.1409 54.7889C45.0373 54.7889 44.934 54.7299 44.9115 54.6577C44.8795 54.5549 43.4489 54.5207 38.2908 54.4992C34.6719 54.4841 31.6114 54.4477 31.4897 54.4185C31.3515 54.3852 31.2684 54.2871 31.2684 54.1573C31.2684 54.0429 31.2242 53.9494 31.1701 53.9494C31.116 53.9494 31.0718 53.8589 31.0718 53.7482C31.0718 53.6376 31.0386 53.5314 30.998 53.5121C30.9057 53.4683 30.5864 52.9094 30.5135 52.6638C30.4834 52.5629 30.4198 52.4802 30.372 52.4802C30.3243 52.4802 30.2852 52.3857 30.2852 52.2703C30.2852 52.1549 30.2492 52.0604 30.2052 52.0604C30.1612 52.0604 30.0644 51.8951 29.9902 51.6931C29.9159 51.4911 29.8192 51.3258 29.7751 51.3258C29.7312 51.3258 29.6952 51.255 29.6952 51.1684C29.6952 51.0818 29.6509 51.011 29.5969 51.011C29.5428 51.011 29.4985 50.9166 29.4985 50.8011C29.4985 50.6857 29.4543 50.5912 29.4002 50.5912C29.3461 50.5912 29.3019 50.4968 29.3019 50.3814C29.3019 50.2659 29.2576 50.1715 29.2035 50.1715C29.1495 50.1715 29.1052 50.1006 29.1052 50.0141C29.1052 49.9275 29.061 49.8566 29.0069 49.8566C28.9528 49.8566 28.9086 49.7622 28.9086 49.6468C28.9086 49.5313 28.8643 49.4369 28.8102 49.4369C28.7561 49.4369 28.7119 49.366 28.7119 49.2795C28.7119 49.1929 28.6677 49.122 28.6136 49.122C28.5595 49.122 28.5152 49.0276 28.5152 48.9122C28.5152 48.7967 28.471 48.7023 28.4169 48.7023C28.3628 48.7023 28.3186 48.6314 28.3186 48.5449C28.3186 48.4583 28.2743 48.3875 28.2203 48.3875C28.1662 48.3875 28.1219 48.293 28.1219 48.1776C28.1219 48.0621 28.0777 47.9677 28.0236 47.9677C27.9695 47.9677 27.9253 47.8771 27.9253 47.7665C27.9253 47.6559 27.8921 47.5497 27.8515 47.5304C27.7592 47.4866 27.4399 46.9277 27.367 46.6821C27.3369 46.5812 27.2733 46.4985 27.2255 46.4985C27.1778 46.4985 27.1386 46.404 27.1386 46.2886C27.1386 46.1732 27.0944 46.0787 27.0403 46.0787C26.9862 46.0787 26.942 45.9843 26.942 45.8688C26.942 45.7534 26.8977 45.659 26.8437 45.659C26.7896 45.659 26.7453 45.5881 26.7453 45.5015C26.7453 45.415 26.7011 45.3441 26.647 45.3441C26.5929 45.3441 26.5487 45.2733 26.5487 45.1867C26.5487 45.1001 26.5044 45.0293 26.4503 45.0293C26.3963 45.0293 26.352 44.9443 26.352 44.8404C26.352 44.7365 26.2989 44.5948 26.234 44.5256C26.1691 44.4563 26.1513 44.3997 26.1946 44.3997C26.2876 44.3997 26.6957 44.8574 27.0403 45.3484C27.1755 45.541 27.5627 45.9957 27.9007 46.3589C28.2387 46.7221 28.5152 47.0485 28.5152 47.0841C28.5152 47.1198 28.648 47.2813 28.8102 47.443C28.9725 47.6047 29.1052 47.7664 29.1052 47.8022C29.1052 47.838 29.3376 48.1215 29.6214 48.4324C29.9053 48.7431 30.3682 49.2712 30.6501 49.6058C30.9321 49.9406 31.1859 50.1895 31.2144 50.1592C31.3184 50.0482 31.282 44.0982 31.176 43.8868C31.1187 43.7724 31.0718 43.5577 31.0718 43.4096C31.0718 43.2616 31.0275 43.1403 30.9735 43.1403C30.9194 43.1403 30.8751 43.0459 30.8751 42.9305C30.8751 42.815 30.8309 42.7206 30.7768 42.7206C30.7227 42.7206 30.6785 42.6261 30.6785 42.5107C30.6785 42.3953 30.6342 42.3008 30.5801 42.3008C30.5261 42.3008 30.4818 42.2168 30.4818 42.1141C30.4818 42.0114 30.3933 41.8593 30.2852 41.7761C30.177 41.6929 30.0885 41.5707 30.0885 41.5047C30.0885 41.3314 29.0492 40.202 28.8896 40.202C28.8157 40.202 28.6915 40.1075 28.6136 39.9921C28.5356 39.8766 28.3931 39.7822 28.2969 39.7822C28.2007 39.7822 28.1219 39.735 28.1219 39.6773C28.1219 39.6195 28.0334 39.5723 27.9253 39.5723C27.8171 39.5723 27.7286 39.5251 27.7286 39.4674C27.7286 39.4097 27.5959 39.3624 27.4336 39.3624C27.2714 39.3624 27.1386 39.326 27.1386 39.2814C27.1386 39.2368 26.8522 39.1424 26.5021 39.0715C25.756 38.9205 18.7233 38.8989 18.4857 39.0469ZM73.3776 39.083C73.0936 39.1424 72.8614 39.2295 72.8614 39.2766C72.8614 39.3238 72.7286 39.3624 72.5664 39.3624C72.4041 39.3624 72.2714 39.4097 72.2714 39.4674C72.2714 39.5251 72.1829 39.5723 72.0747 39.5723C71.9666 39.5723 71.8781 39.6195 71.8781 39.6773C71.8781 39.735 71.7993 39.7822 71.7031 39.7822C71.6069 39.7822 71.4644 39.8766 71.3864 39.9921C71.3085 40.1075 71.1843 40.202 71.1104 40.202C70.9508 40.202 69.9115 41.3314 69.9115 41.5047C69.9115 41.5707 69.823 41.6929 69.7148 41.7761C69.6067 41.8593 69.5182 42.0114 69.5182 42.1141C69.5182 42.2168 69.4739 42.3008 69.4199 42.3008C69.3658 42.3008 69.3215 42.3953 69.3215 42.5107C69.3215 42.6261 69.2773 42.7206 69.2232 42.7206C69.1691 42.7206 69.1249 42.815 69.1249 42.9305C69.1249 43.0459 69.0806 43.1403 69.0266 43.1403C68.9725 43.1403 68.9282 43.2781 68.9282 43.4465C68.9282 43.6148 68.8815 43.7692 68.8244 43.7894C68.7177 43.8274 68.6795 50.046 68.7853 50.1588C68.8139 50.1894 69.0679 49.9406 69.3499 49.6058C69.6318 49.2712 70.0946 48.7431 70.3786 48.4324C70.6625 48.1215 70.8948 47.838 70.8948 47.8022C70.8948 47.7664 71.0275 47.6047 71.1898 47.443C71.352 47.2813 71.4848 47.1198 71.4848 47.0841C71.4848 47.0485 71.7614 46.7221 72.0993 46.3589C72.4374 45.9957 72.8245 45.541 72.9597 45.3484C73.3043 44.8574 73.7124 44.3997 73.8054 44.3997C73.8487 44.3997 73.8309 44.4563 73.766 44.5256C73.7011 44.5948 73.648 44.7365 73.648 44.8404C73.648 44.9443 73.6037 45.0293 73.5497 45.0293C73.4956 45.0293 73.4513 45.1001 73.4513 45.1867C73.4513 45.2733 73.4071 45.3441 73.353 45.3441C73.2989 45.3441 73.2547 45.415 73.2547 45.5015C73.2547 45.5881 73.2104 45.659 73.1563 45.659C73.1023 45.659 73.058 45.7534 73.058 45.8688C73.058 45.9843 73.0138 46.0787 72.9597 46.0787C72.9056 46.0787 72.8614 46.1732 72.8614 46.2886C72.8614 46.404 72.8222 46.4985 72.7745 46.4985C72.7267 46.4985 72.6631 46.5812 72.633 46.6821C72.5601 46.9277 72.2408 47.4866 72.1485 47.5304C72.1079 47.5497 72.0747 47.6559 72.0747 47.7665C72.0747 47.8771 72.0305 47.9677 71.9764 47.9677C71.9223 47.9677 71.8781 48.0621 71.8781 48.1776C71.8781 48.293 71.8338 48.3875 71.7797 48.3875C71.7257 48.3875 71.6814 48.4583 71.6814 48.5449C71.6814 48.6314 71.6372 48.7023 71.5831 48.7023C71.529 48.7023 71.4848 48.7967 71.4848 48.9122C71.4848 49.0276 71.4405 49.122 71.3864 49.122C71.3324 49.122 71.2881 49.1929 71.2881 49.2795C71.2881 49.366 71.2439 49.4369 71.1898 49.4369C71.1357 49.4369 71.0914 49.5313 71.0914 49.6468C71.0914 49.7622 71.0472 49.8566 70.9931 49.8566C70.939 49.8566 70.8948 49.9275 70.8948 50.0141C70.8948 50.1006 70.8505 50.1715 70.7965 50.1715C70.7424 50.1715 70.6981 50.2659 70.6981 50.3814C70.6981 50.4968 70.6539 50.5912 70.5998 50.5912C70.5457 50.5912 70.5015 50.6857 70.5015 50.8011C70.5015 50.9166 70.4572 51.011 70.4031 51.011C70.3491 51.011 70.3048 51.0818 70.3048 51.1684C70.3048 51.255 70.2688 51.3258 70.2249 51.3258C70.1808 51.3258 70.0841 51.4911 70.0098 51.6931C69.9356 51.8951 69.8388 52.0604 69.7948 52.0604C69.7508 52.0604 69.7148 52.1549 69.7148 52.2703C69.7148 52.3857 69.6789 52.4802 69.6349 52.4802C69.5909 52.4802 69.4941 52.6455 69.4199 52.8475C69.3456 53.0495 69.2489 53.2148 69.2048 53.2148C69.1609 53.2148 69.1249 53.2856 69.1249 53.3722C69.1249 53.4588 69.0806 53.5296 69.0266 53.5296C68.9725 53.5296 68.9282 53.6241 68.9282 53.7395C68.9282 53.8549 68.884 53.9494 68.8299 53.9494C68.7758 53.9494 68.7316 54.0429 68.7316 54.1573C68.7316 54.287 68.6484 54.3853 68.5103 54.4187C68.3887 54.4482 65.3599 54.4845 61.7796 54.4995C56.731 54.5205 55.2427 54.5559 55.1474 54.6577C55.0798 54.7299 54.9449 54.7889 54.8476 54.7889C54.7502 54.7889 54.6706 54.8361 54.6706 54.8939C54.6706 54.9516 54.5918 54.9988 54.4957 54.9988C54.3994 54.9988 54.2569 55.0933 54.179 55.2087C54.101 55.3241 53.9904 55.4186 53.9331 55.4186C53.8759 55.4186 53.764 55.5195 53.6845 55.6429C53.6049 55.7664 53.4402 55.9767 53.3186 56.1105C53.197 56.2442 53.0973 56.4265 53.0973 56.5157C53.0973 56.6049 53.0639 56.6779 53.0229 56.6779C52.7722 56.6779 52.5765 58.9187 52.7868 59.3816C52.8324 59.4818 52.9743 59.7941 53.1022 60.0757C53.354 60.63 54.1083 61.5052 54.3342 61.5052C54.4111 61.5052 54.4739 61.5524 54.4739 61.6102C54.4739 61.6679 54.5624 61.7151 54.6706 61.7151C54.7788 61.7151 54.8673 61.7623 54.8673 61.82C54.8673 61.8778 55 61.925 55.1622 61.925C55.3245 61.925 55.4572 61.9727 55.4572 62.0312C55.4572 62.1566 71.1212 62.1094 71.706 61.9822C71.9089 61.9381 72.0747 61.8599 72.0747 61.8086C72.0747 61.7572 72.1632 61.7151 72.2714 61.7151C72.3795 61.7151 72.468 61.6781 72.468 61.6328C72.468 61.5875 72.5897 61.4736 72.7384 61.3797C73.1013 61.1505 73.4513 60.8197 73.4514 60.7059C73.4515 60.6549 73.5665 60.4715 73.707 60.2984C73.8475 60.1252 74.0349 59.8065 74.1234 59.59C74.2119 59.3736 74.3182 59.1965 74.3595 59.1965C74.4008 59.1965 74.4346 59.102 74.4346 58.9866C74.4346 58.8712 74.4789 58.7767 74.5329 58.7767C74.587 58.7767 74.6313 58.6823 74.6313 58.5668C74.6313 58.4514 74.6701 58.357 74.7177 58.357C74.7652 58.357 74.8591 58.2153 74.9263 58.0421C74.9934 57.869 75.0873 57.7273 75.1348 57.7273C75.1824 57.7273 75.2212 57.6329 75.2212 57.5174C75.2212 57.402 75.2655 57.3075 75.3196 57.3075C75.3736 57.3075 75.4179 57.2131 75.4179 57.0976C75.4179 56.9822 75.4521 56.8878 75.4939 56.8878C75.5357 56.8878 75.7238 56.5579 75.9118 56.1548C76.0998 55.7518 76.2868 55.4212 76.3274 55.4203C76.368 55.4193 76.4012 55.3241 76.4012 55.2087C76.4012 55.0933 76.4354 54.9988 76.4772 54.9988C76.519 54.9988 76.7071 54.669 76.8951 54.2659C77.0831 53.8628 77.2701 53.5322 77.3107 53.5313C77.3513 53.5304 77.3845 53.488 77.3845 53.4371C77.3845 53.3597 77.7267 52.6918 79.1283 50.0344C79.3072 49.6955 79.2811 49.9394 79.0043 51.1955C78.4684 53.6282 77.0884 58.5285 76.6478 59.5638C76.574 59.7369 76.4417 60.1147 76.3537 60.4033C75.9044 61.8763 75.0201 63.2173 74.1936 63.6791C74.034 63.7682 73.8429 63.9058 73.7688 63.9848C73.6948 64.0638 73.5156 64.1543 73.3707 64.1859C73.2258 64.2174 72.9472 64.2883 72.7516 64.3434C72.5424 64.4023 69.607 64.4436 65.6163 64.4436C61.1454 64.4436 58.6391 64.4825 58.257 64.5579C57.7196 64.664 56.9039 65.0305 56.5656 65.3182C56.1771 65.6483 55.4572 66.4402 55.4572 66.5374C55.4572 66.598 55.413 66.6474 55.3589 66.6474C55.3048 66.6474 55.2606 66.7418 55.2606 66.8573C55.2606 66.9727 55.2163 67.0671 55.1622 67.0671C55.1082 67.0671 55.0639 67.1588 55.0639 67.2708C55.0639 67.3829 55.0197 67.5037 54.9656 67.5394C54.9115 67.5751 54.8673 67.7876 54.8673 68.0116C54.8673 68.2357 54.823 68.4482 54.7689 68.4839C54.7148 68.5195 54.6706 68.7793 54.6706 69.061C54.6706 69.3428 54.7148 69.6025 54.7689 69.6382C54.823 69.6739 54.8673 69.8655 54.8673 70.0642C54.8673 70.2628 54.9115 70.4253 54.9656 70.4253C55.0197 70.4253 55.0639 70.567 55.0639 70.7401C55.0639 70.9133 55.1082 71.0549 55.1622 71.0549C55.2163 71.0549 55.2606 71.1966 55.2606 71.3698C55.2606 71.5429 55.3048 71.6846 55.3589 71.6846C55.413 71.6846 55.4572 71.779 55.4572 71.8945C55.4572 72.0099 55.5015 72.1044 55.5556 72.1044C55.6096 72.1044 55.6539 72.246 55.6539 72.4192C55.6539 72.5923 55.6981 72.734 55.7522 72.734C55.8063 72.734 55.8505 72.8285 55.8505 72.9439C55.8505 73.0593 55.8948 73.1538 55.9489 73.1538C56.003 73.1538 56.0472 73.2955 56.0472 73.4686C56.0472 73.6418 56.0914 73.7834 56.1455 73.7834C56.1996 73.7834 56.2439 73.8779 56.2439 73.9933C56.2439 74.1088 56.2881 74.2032 56.3422 74.2032C56.3963 74.2032 56.4405 74.3449 56.4405 74.518C56.4405 74.6912 56.4848 74.8329 56.5388 74.8329C56.5929 74.8329 56.6372 74.9273 56.6372 75.0427C56.6372 75.1582 56.6814 75.2526 56.7355 75.2526C56.7896 75.2526 56.8338 75.3943 56.8338 75.5675C56.8338 75.7406 56.8781 75.8823 56.9322 75.8823C56.9862 75.8823 57.0305 76.0003 57.0305 76.1446C57.0305 76.2889 57.0747 76.407 57.1288 76.407C57.1829 76.407 57.2271 76.5251 57.2271 76.6693C57.2271 76.8136 57.2714 76.9317 57.3255 76.9317C57.3795 76.9317 57.4238 77.0498 57.4238 77.1941C57.4238 77.3384 57.468 77.4564 57.5221 77.4564C57.5762 77.4564 57.6205 77.5745 57.6205 77.7188C57.6205 77.8631 57.6647 77.9811 57.7188 77.9811C57.7729 77.9811 57.8171 78.0992 57.8171 78.2435C57.8171 78.3878 57.8614 78.5058 57.9154 78.5058C57.9695 78.5058 58.0138 78.6239 58.0138 78.7682C58.0138 78.9125 58.058 79.0305 58.1121 79.0305C58.1662 79.0305 58.2104 79.1486 58.2104 79.2929C58.2104 79.4372 58.2547 79.5553 58.3088 79.5553C58.3628 79.5553 58.4071 79.6733 58.4071 79.8176C58.4071 79.9619 58.4513 80.08 58.5054 80.08C58.5595 80.08 58.6037 80.198 58.6037 80.3423C58.6037 80.4866 58.648 80.6047 58.7021 80.6047C58.7561 80.6047 58.8004 80.7227 58.8004 80.867C58.8004 81.0113 58.8446 81.1294 58.8987 81.1294C58.9528 81.1294 58.9971 81.2474 58.9971 81.3917C58.9971 81.536 59.0413 81.6541 59.0954 81.6541C59.1495 81.6541 59.1937 81.7693 59.1937 81.9103C59.1937 82.0512 59.238 82.1956 59.292 82.2313C59.3461 82.267 59.3904 82.3878 59.3904 82.4998C59.3904 82.6119 59.4346 82.7035 59.4887 82.7035C59.5428 82.7035 59.587 82.7986 59.587 82.9149C59.587 83.031 59.6261 83.2082 59.6738 83.3084C59.7216 83.4086 59.8042 83.6086 59.8574 83.7529C59.9105 83.8972 60.0101 84.157 60.0787 84.3301C60.2043 84.6475 60.3189 84.9495 60.4966 85.432C60.5498 85.5763 60.6324 85.7763 60.6801 85.8766C60.7279 85.9768 60.767 86.1539 60.767 86.2701C60.767 86.3864 60.8112 86.4814 60.8653 86.4814C60.9194 86.4814 60.9636 86.573 60.9636 86.6851C60.9636 86.7972 61.0079 86.918 61.0619 86.9537C61.116 86.9894 61.1603 87.1338 61.1603 87.2747C61.1603 87.4156 61.1966 87.5309 61.2408 87.5309C61.2852 87.5309 61.3816 87.767 61.4553 88.0556C61.5289 88.3442 61.6174 88.5803 61.6519 88.5803C61.6864 88.5803 61.7749 88.8164 61.8486 89.105C61.9222 89.3936 62.009 89.6297 62.0415 89.6297C62.074 89.6297 62.1608 89.8471 62.2343 90.1129C62.3079 90.3787 62.4502 90.7778 62.5507 90.9998C62.6513 91.2219 62.7335 91.4442 62.7335 91.4939C62.7335 91.5435 62.822 91.7796 62.9302 92.0186C63.0383 92.2576 63.1268 92.5031 63.1268 92.5644C63.1268 92.6257 63.1698 92.7579 63.2223 92.8581C63.2748 92.9584 63.6678 93.9848 64.0955 95.1392C64.5232 96.2935 64.9662 97.428 65.0799 97.6603C65.3609 98.234 66.2267 99.1794 66.4711 99.1794C66.5246 99.1794 66.5683 99.2267 66.5683 99.2844C66.5683 99.3421 66.6568 99.3893 66.765 99.3893C66.8732 99.3893 66.9617 99.4263 66.9617 99.4714C66.9617 99.5165 67.1498 99.6071 67.3795 99.6727C68.6942 100.048 68.7305 100.052 69.3027 99.9244C70.1638 99.7317 70.6981 99.561 70.6981 99.4784C70.6981 99.4372 70.7844 99.3742 70.8898 99.3385C71.1282 99.2577 71.948 98.5006 72.2714 98.0624C72.5151 97.7321 72.8614 96.969 72.8614 96.7621C72.8614 96.6555 72.9056 96.5391 72.9597 96.5034C73.015 96.4669 73.058 95.9601 73.058 95.3428C73.058 94.6823 73.019 94.2472 72.9597 94.2472C72.9056 94.2472 72.8614 94.1055 72.8614 93.9323C72.8614 93.7592 72.8171 93.6175 72.763 93.6175C72.7089 93.6175 72.6647 93.5023 72.6647 93.3613C72.6647 93.2204 72.6205 93.076 72.5664 93.0403C72.5123 93.0046 72.468 92.8838 72.468 92.7718C72.468 92.6597 72.4238 92.5681 72.3697 92.5681C72.3156 92.5681 72.2714 92.4529 72.2714 92.3119C72.2714 92.171 72.2271 92.0266 72.1731 91.9909C72.119 91.9552 72.0747 91.8344 72.0747 91.7223C72.0747 91.6103 72.0305 91.5187 71.9764 91.5187C71.9223 91.5187 71.8781 91.377 71.8781 91.2038C71.8781 91.0307 71.8338 90.889 71.7797 90.889C71.7257 90.889 71.6814 90.7985 71.6814 90.6878C71.6814 90.5772 71.6262 90.4592 71.5585 90.4255C71.4602 90.3766 71.4602 90.352 71.5585 90.3031C71.6262 90.2694 71.6814 90.1041 71.6814 89.9358C71.6814 89.7675 71.7257 89.6297 71.7797 89.6297C71.8338 89.6297 71.8781 89.5353 71.8781 89.4198C71.8781 89.3044 71.9223 89.2099 71.9764 89.2099C72.0305 89.2099 72.0747 89.0683 72.0747 88.8951C72.0747 88.7219 72.119 88.5803 72.1731 88.5803C72.2271 88.5803 72.2714 88.4858 72.2714 88.3704C72.2714 88.255 72.3156 88.1605 72.3697 88.1605C72.4238 88.1605 72.468 88.0188 72.468 87.8457C72.468 87.6725 72.5043 87.5309 72.5486 87.5309C72.5929 87.5309 72.6894 87.2947 72.763 87.0061C72.8367 86.7176 72.9331 86.4814 72.9775 86.4814C73.0217 86.4814 73.058 86.3398 73.058 86.1666C73.058 85.9935 73.1023 85.8518 73.1563 85.8518C73.2104 85.8518 73.2547 85.7573 73.2547 85.6419C73.2547 85.5265 73.2989 85.432 73.353 85.432C73.4071 85.432 73.4513 85.2903 73.4513 85.1172C73.4513 84.944 73.4956 84.8024 73.5497 84.8024C73.6037 84.8024 73.648 84.7107 73.648 84.5987C73.648 84.4866 73.6922 84.3658 73.7463 84.3301C73.8004 84.2944 73.8446 84.15 73.8446 84.0091C73.8446 83.8682 73.8889 83.7529 73.943 83.7529C73.9971 83.7529 74.0413 83.6579 74.0413 83.5416C74.0413 83.4254 74.0803 83.2483 74.1281 83.1481C74.22 82.9555 74.404 82.4938 74.5461 82.1001C74.7116 81.6412 74.8519 81.2847 74.9378 81.1046C74.9855 81.0044 75.0246 80.8502 75.0246 80.7621C75.0246 80.6739 75.0636 80.5198 75.1114 80.4196C75.1592 80.3193 75.2552 80.1076 75.3247 79.9488L75.4511 79.6602H81.0884C86.0337 79.6602 86.7257 79.6795 86.7257 79.8176C86.7257 79.9042 86.7699 79.975 86.824 79.975C86.8781 79.975 86.9223 80.0931 86.9223 80.2374C86.9223 80.3817 86.9666 80.4997 87.0207 80.4997C87.0747 80.4997 87.119 80.5948 87.119 80.7111C87.119 80.8273 87.158 81.0044 87.2058 81.1046C87.2536 81.2048 87.3473 81.4285 87.414 81.6016C87.4806 81.7748 87.5743 81.9984 87.6221 82.0986C87.6699 82.1989 87.7089 82.376 87.7089 82.4922C87.7089 82.6084 87.7532 82.7035 87.8073 82.7035C87.8614 82.7035 87.9056 82.8216 87.9056 82.9659C87.9056 83.1102 87.9499 83.2282 88.0039 83.2282C88.058 83.2282 88.1023 83.3463 88.1023 83.4906C88.1023 83.6349 88.1465 83.7529 88.2006 83.7529C88.2547 83.7529 88.2989 83.848 88.2989 83.9643C88.2989 84.0805 88.3432 84.2694 88.3972 84.3841C88.4513 84.4987 88.5398 84.6863 88.5939 84.8009C88.648 84.9156 88.6922 85.1045 88.6922 85.2207C88.6922 85.3369 88.7285 85.432 88.7728 85.432C88.8171 85.432 88.9136 85.6681 88.9872 85.9567C89.0609 86.2453 89.1494 86.4814 89.1839 86.4814C89.2184 86.4814 89.3069 86.7176 89.3805 87.0061C89.4542 87.2947 89.5506 87.5309 89.595 87.5309C89.6392 87.5309 89.6755 87.6725 89.6755 87.8457C89.6755 88.0188 89.7101 88.1605 89.7524 88.1605C89.7947 88.1605 89.8896 88.3848 89.9633 88.659C90.0371 88.9331 90.1296 89.2047 90.169 89.2624C90.2085 89.3201 90.3399 89.6743 90.4612 90.0495C90.5825 90.4246 90.7209 90.7765 90.7685 90.8313C90.8163 90.8862 90.8555 90.9929 90.8555 91.0686C90.8555 91.1442 90.9387 91.4063 91.0405 91.651C91.1423 91.8956 91.2802 92.2611 91.3471 92.4631C91.414 92.6651 91.5519 93.0307 91.6537 93.2753C91.7555 93.52 91.8387 93.7519 91.8387 93.7909C91.8387 93.9565 93.4554 98.3319 93.6853 98.7885C93.8273 99.0706 94.0913 99.3917 94.2894 99.5231C94.7247 99.8121 95.4257 100.013 95.5957 99.8983C95.6656 99.851 95.8443 99.8116 95.9931 99.8107C96.1419 99.8098 96.2635 99.7734 96.2635 99.7297C96.2635 99.6861 96.3937 99.5889 96.5528 99.5138C96.7119 99.4386 96.8997 99.2382 96.9701 99.0684C97.0405 98.8986 97.1316 98.7597 97.1725 98.7597C97.2134 98.7597 97.2468 98.6385 97.2468 98.4904C97.2468 98.3423 97.2912 98.1326 97.3454 98.0245C97.4113 97.8932 97.4113 97.8064 97.3454 97.7629C97.2912 97.7271 97.2468 97.5347 97.2468 97.3353C97.2468 97.1359 97.1957 96.8671 97.1331 96.7381C96.8884 96.2329 96.8535 96.1317 96.8535 95.9277C96.8535 95.8114 96.8092 95.7163 96.7552 95.7163C96.7011 95.7163 96.6568 95.6213 96.6568 95.505C96.6568 95.3888 96.6178 95.2117 96.57 95.1115C96.4495 94.8588 96.1347 94.0493 95.9685 93.565C95.8611 93.2519 95.6621 92.7496 95.5637 92.5433C95.5159 92.4431 95.4769 92.2985 95.4769 92.2219C95.4769 92.1454 95.3884 91.8873 95.2802 91.6484C95.1721 91.4094 95.0836 91.164 95.0836 91.1028C95.0836 91.0417 95.0003 90.7915 94.8985 90.5468C94.7968 90.3022 94.6589 89.9367 94.592 89.7346C94.5253 89.5326 94.4128 89.2257 94.3421 89.0525C94.2715 88.8794 94.1482 88.5488 94.0681 88.3179C93.5617 86.8569 93.2843 86.0748 92.877 84.9598C92.624 84.2672 92.2821 83.3227 92.1172 82.8609C91.9523 82.3992 91.645 81.5492 91.4343 80.972C91.2236 80.3948 91.0514 79.8672 91.0517 79.7997C91.0521 79.678 91.2259 79.622 91.9862 79.4986C93.2969 79.2859 94.1819 78.1538 94.5059 76.2758C94.5532 76.0017 94.6362 75.5412 94.6903 75.2526C94.7443 74.964 94.8328 74.4918 94.8869 74.2032C94.941 73.9146 95.0295 73.4424 95.0836 73.1538C95.3061 71.9662 95.53 70.6439 95.6342 69.9006C95.6625 69.6986 95.7248 69.4388 95.7724 69.3234C95.8201 69.208 95.8814 68.9246 95.9088 68.6937C95.9362 68.4629 96.0069 68.0142 96.066 67.6968C96.1251 67.3793 96.1964 66.9543 96.2246 66.7523C96.2527 66.5503 96.3148 66.2906 96.3623 66.1751C96.41 66.0597 96.4714 65.7764 96.4987 65.5455C96.5512 65.1026 96.6785 64.3867 97.0583 62.3972C97.1134 62.1086 97.1808 61.6836 97.2083 61.4527C97.2356 61.2219 97.2972 60.9385 97.3451 60.8231C97.3931 60.7077 97.4547 60.4243 97.482 60.1934C97.5094 59.9626 97.5783 59.5258 97.6351 59.2227C97.6919 58.9197 97.7841 58.4239 97.8399 58.1208C97.8958 57.8178 97.9868 57.3338 98.0424 57.0452C98.0979 56.7566 98.1672 56.308 98.1963 56.0482C98.2254 55.7885 98.2891 55.5311 98.338 55.4763C98.3868 55.4214 98.4267 55.1764 98.4267 54.9315C98.4267 54.6867 98.471 54.4573 98.5251 54.4216C98.5792 54.3859 98.6234 54.1498 98.6234 53.8969C98.6234 53.644 98.6677 53.4079 98.7217 53.3722C98.7758 53.3365 98.8201 53.1004 98.8201 52.8475C98.8201 52.5946 98.8643 52.3585 98.9184 52.3228C98.9725 52.2871 99.0167 52.051 99.0167 51.7981C99.0167 51.5452 99.061 51.309 99.115 51.2734C99.1691 51.2377 99.2134 50.9752 99.2134 50.69C99.2134 50.4048 99.2576 50.1715 99.3117 50.1715C99.3658 50.1715 99.41 49.9354 99.41 49.6468C99.41 49.3582 99.4543 49.122 99.5084 49.122C99.5624 49.122 99.6067 48.8623 99.6067 48.5449C99.6067 48.2274 99.6509 47.9677 99.705 47.9677C99.7591 47.9677 99.8033 47.7316 99.8033 47.443C99.8033 47.1544 99.8476 46.9183 99.9017 46.9183C99.9585 46.9183 100 46.5859 100 46.1312C100 45.6765 99.9585 45.3441 99.9017 45.3441C99.8476 45.3441 99.8033 45.2261 99.8033 45.0818C99.8033 44.9375 99.7591 44.8194 99.705 44.8194C99.6509 44.8194 99.6067 44.7354 99.6067 44.6327C99.6067 44.53 99.5182 44.3779 99.41 44.2947C99.3019 44.2115 99.2134 44.0816 99.2134 44.0059C99.2134 43.9302 99.1359 43.8377 99.0413 43.8002C98.9467 43.7628 98.7976 43.6462 98.7102 43.5411C98.6227 43.4362 98.479 43.3502 98.3907 43.3502C98.3024 43.3502 98.2301 43.303 98.2301 43.2453C98.2301 43.1876 98.0973 43.1403 97.9351 43.1403C97.7729 43.1403 97.6401 43.0931 97.6401 43.0354C97.6401 42.9762 97.3616 42.9305 97.001 42.9305C96.6404 42.9305 96.3619 42.9762 96.3619 43.0354C96.3619 43.0931 96.2822 43.1403 96.1848 43.1403C95.9651 43.1403 95.4787 43.3749 95.4777 43.4814C95.4773 43.5248 95.4105 43.5601 95.3294 43.5601C95.2483 43.5601 95.1819 43.6073 95.1819 43.6651C95.1819 43.7228 95.1315 43.77 95.0698 43.77C94.7243 43.77 94.1743 45.0784 93.923 46.4985C93.8056 47.1623 93.3069 49.8776 92.8148 52.5327C92.3227 55.1877 91.878 57.6197 91.8265 57.9372C91.7749 58.2546 91.6916 58.7269 91.6414 58.9866C91.5912 59.2463 91.5089 59.695 91.4584 59.9836C91.3668 60.5086 91.2028 61.3983 91.0521 62.1873C91.0081 62.4182 90.9196 62.8904 90.8555 63.2368C90.7913 63.5831 90.7029 64.0553 90.6588 64.2862C90.6148 64.5171 90.5284 64.9893 90.4669 65.3356C90.4054 65.6819 90.3097 66.2014 90.2543 66.49C90.1987 66.7786 90.1319 67.2036 90.1055 67.4344C90.0792 67.6653 90.0185 67.9487 89.9705 68.0641C89.9225 68.1795 89.861 68.4629 89.8336 68.6937C89.8062 68.9246 89.7351 69.3732 89.6755 69.6907C89.6159 70.0081 89.5448 70.4568 89.5174 70.6876C89.4901 70.9185 89.4285 71.2019 89.3805 71.3173C89.3325 71.4327 89.2712 71.7161 89.2441 71.947C89.1565 72.6949 89.0596 73.0916 88.9308 73.229C88.7709 73.3996 81.8092 73.4286 81.8092 73.2587C81.8092 73.201 81.8977 73.1538 82.0059 73.1538C82.1141 73.1538 82.2026 73.1066 82.2026 73.0488C82.2026 72.9911 82.2911 72.9439 82.3992 72.9439C82.5074 72.9439 82.5959 72.8967 82.5959 72.839C82.5959 72.7812 82.6844 72.734 82.7925 72.734C82.9007 72.734 82.9892 72.6868 82.9892 72.6291C82.9892 72.5714 83.0679 72.5241 83.1641 72.5241C83.2604 72.5241 83.4029 72.4297 83.4808 72.3143C83.5588 72.1988 83.6803 72.1044 83.7509 72.1044C83.918 72.1044 84.7591 71.2067 84.7591 71.0284C84.7591 70.953 84.8476 70.8233 84.9558 70.7401C85.0639 70.6569 85.1524 70.5285 85.1524 70.4546C85.1524 70.3808 85.1967 70.3204 85.2507 70.3204C85.3048 70.3204 85.3491 70.2495 85.3491 70.1629C85.3491 70.0764 85.3933 70.0055 85.4474 70.0055C85.5015 70.0055 85.5457 69.9111 85.5457 69.7956C85.5457 69.6802 85.59 69.5858 85.6441 69.5858C85.6981 69.5858 85.7424 69.4441 85.7424 69.2709C85.7424 69.0978 85.7866 68.9561 85.8407 68.9561C85.8948 68.9561 85.939 68.7436 85.939 68.4839C85.939 68.2241 85.9833 68.0116 86.0374 68.0116C86.1024 68.0116 86.1357 63.9364 86.1357 55.9958C86.1357 48.0551 86.1024 43.9799 86.0374 43.9799C85.9833 43.9799 85.939 43.8146 85.939 43.6126C85.939 43.4106 85.8948 43.2453 85.8407 43.2453C85.7866 43.2453 85.7424 43.1272 85.7424 42.9829C85.7424 42.8386 85.6981 42.7206 85.6441 42.7206C85.59 42.7206 85.5457 42.6261 85.5457 42.5107C85.5457 42.3953 85.5015 42.3008 85.4474 42.3008C85.3933 42.3008 85.3491 42.2168 85.3491 42.1141C85.3491 42.0114 85.2606 41.8593 85.1524 41.7761C85.0442 41.6929 84.9558 41.5644 84.9558 41.4906C84.9558 41.4168 84.9115 41.3563 84.8574 41.3563C84.8033 41.3563 84.7591 41.3078 84.7591 41.2487C84.7591 41.0917 83.9021 40.202 83.7509 40.202C83.6803 40.202 83.5588 40.1075 83.4808 39.9921C83.4029 39.8766 83.2604 39.7822 83.1641 39.7822C83.0679 39.7822 82.9892 39.735 82.9892 39.6773C82.9892 39.6195 82.9007 39.5723 82.7925 39.5723C82.6844 39.5723 82.5959 39.5354 82.5959 39.4903C82.5959 39.4451 82.3856 39.3476 82.1288 39.2734C81.872 39.1992 81.585 39.0945 81.4911 39.0407C81.2593 38.9076 74.0366 38.9454 73.3776 39.083ZM34.5553 73.7488C34.5899 73.8452 34.5797 73.9515 34.5327 73.9849C34.4856 74.0184 34.3859 74.2702 34.3112 74.5443C34.2365 74.8184 34.1408 75.0427 34.0985 75.0427C34.0562 75.0427 34.0217 75.1018 34.0219 75.1739C34.0222 75.2798 33.1627 77.6893 32.7211 78.8207C32.6648 78.965 32.5804 79.1893 32.5335 79.3191C32.4867 79.4489 32.4041 79.6733 32.35 79.8176C32.296 79.9619 32.2134 80.1863 32.1666 80.3161C32.1197 80.4459 32.0312 80.682 31.9699 80.8408C31.9086 80.9996 31.8142 81.2474 31.7601 81.3917C31.706 81.536 31.6116 81.7839 31.5502 81.9427C31.489 82.1015 31.3953 82.3493 31.3422 82.4936C31.289 82.6379 31.2064 82.838 31.1586 82.9382C31.1108 83.0384 31.0718 83.2155 31.0718 83.3317C31.0718 83.448 31.0275 83.5431 30.9735 83.5431C30.9194 83.5431 30.8751 83.6045 30.8751 83.6796C30.8751 83.8726 30.6439 84.3808 30.5556 84.3818C30.5149 84.3822 30.4818 84.2881 30.4818 84.1727C30.4818 84.0573 30.4376 83.9628 30.3835 83.9628C30.3294 83.9628 30.2852 83.8212 30.2852 83.648C30.2852 83.4748 30.2409 83.3332 30.1868 83.3332C30.1327 83.3332 30.0885 83.2387 30.0885 83.1233C30.0885 83.0079 30.0442 82.9134 29.9902 82.9134C29.9361 82.9134 29.8918 82.7717 29.8918 82.5986C29.8918 82.4254 29.8476 82.2838 29.7935 82.2838C29.7394 82.2838 29.6952 82.1657 29.6952 82.0214C29.6952 81.8771 29.6509 81.759 29.5969 81.759C29.5428 81.759 29.4985 81.641 29.4985 81.4967C29.4985 81.3524 29.4543 81.2343 29.4002 81.2343C29.3461 81.2343 29.3019 81.1163 29.3019 80.972C29.3019 80.8277 29.2576 80.7096 29.2035 80.7096C29.1495 80.7096 29.1052 80.5916 29.1052 80.4473C29.1052 80.303 29.061 80.1849 29.0069 80.1849C28.8943 80.1849 28.8699 79.6612 28.9823 79.6581C29.3594 79.6475 30.4304 79.4233 30.6006 79.3195C31.144 78.9877 31.7523 78.3525 31.9447 77.916C32.0181 77.7498 32.1171 77.5319 32.1649 77.4316C32.286 77.1774 32.276 75.4625 32.1534 75.4625C32.0993 75.4625 32.0551 75.3681 32.0551 75.2526C32.0551 75.1372 32.0108 75.0427 31.9567 75.0427C31.9027 75.0427 31.8584 74.9689 31.8584 74.8785C31.8584 74.7882 31.6372 74.4843 31.3668 74.2032C31.0964 73.9221 30.8751 73.6655 30.8751 73.6328C30.8751 73.6002 31.689 73.5736 32.6837 73.5736C34.2824 73.5736 34.4995 73.5939 34.5553 73.7488ZM69.1249 73.6328C69.1249 73.6655 68.9036 73.9221 68.6332 74.2032C68.3628 74.4843 68.1416 74.7882 68.1416 74.8785C68.1416 74.9689 68.0973 75.0427 68.0433 75.0427C67.9892 75.0427 67.9449 75.1372 67.9449 75.2526C67.9449 75.3681 67.9007 75.4625 67.8466 75.4625C67.724 75.4625 67.714 77.1774 67.8351 77.4316C67.8829 77.5319 67.9819 77.7498 68.0553 77.916C68.2477 78.3525 68.856 78.9877 69.3994 79.3195C69.5696 79.4233 70.6406 79.6475 71.0177 79.6581C71.1301 79.6612 71.1057 80.1849 70.9931 80.1849C70.939 80.1849 70.8948 80.303 70.8948 80.4473C70.8948 80.5916 70.8505 80.7096 70.7965 80.7096C70.7424 80.7096 70.6981 80.8277 70.6981 80.972C70.6981 81.1163 70.6539 81.2343 70.5998 81.2343C70.5457 81.2343 70.5015 81.3524 70.5015 81.4967C70.5015 81.641 70.4572 81.759 70.4031 81.759C70.3491 81.759 70.3048 81.8771 70.3048 82.0214C70.3048 82.1657 70.2606 82.2838 70.2065 82.2838C70.1524 82.2838 70.1082 82.4254 70.1082 82.5986C70.1082 82.7717 70.0639 82.9134 70.0098 82.9134C69.9558 82.9134 69.9115 83.005 69.9115 83.1171C69.9115 83.2292 69.8673 83.35 69.8132 83.3856C69.7591 83.4213 69.7148 83.5657 69.7148 83.7067C69.7148 83.8476 69.6706 83.9628 69.6165 83.9628C69.5624 83.9628 69.5182 84.0573 69.5182 84.1727C69.5182 84.2881 69.4739 84.3826 69.4199 84.3826C69.3658 84.3826 69.3215 84.3118 69.3215 84.2252C69.3215 84.1386 69.2773 84.0678 69.2232 84.0678C69.1691 84.0678 69.1249 83.9497 69.1249 83.8054C69.1249 83.6611 69.0806 83.5431 69.0266 83.5431C68.9725 83.5431 68.9282 83.425 68.9282 83.2807C68.9282 83.1364 68.884 83.0183 68.8299 83.0183C68.7758 83.0183 68.7316 82.9233 68.7316 82.807C68.7316 82.6908 68.6925 82.5137 68.6447 82.4135C68.5482 82.211 68.306 81.585 68.0564 80.8933C68.0095 80.7635 67.9151 80.5155 67.8466 80.3423C67.7781 80.1692 67.6837 79.9212 67.6368 79.7914C67.59 79.6616 67.5015 79.4254 67.4401 79.2667C67.3789 79.1079 67.2852 78.86 67.2321 78.7157C67.1789 78.5714 67.0963 78.3714 67.0485 78.2712C67.0007 78.171 66.9617 78.0387 66.9617 77.9775C66.9617 77.9162 66.8732 77.6706 66.765 77.4316C66.6568 77.1927 66.5683 76.9584 66.5683 76.9108C66.5683 76.8634 66.4836 76.6243 66.3799 76.3796C66.2763 76.135 66.1327 75.7459 66.0609 75.515C65.9891 75.2841 65.906 75.0716 65.8764 75.0427C65.8468 75.0139 65.76 74.7778 65.6834 74.518C65.6068 74.2583 65.5076 74.0184 65.4629 73.9849C65.4183 73.9515 65.4101 73.8452 65.4447 73.7488C65.5005 73.5939 65.7176 73.5736 67.3163 73.5736C68.311 73.5736 69.1249 73.6002 69.1249 73.6328Z" fill="white"/>
</svg>
